<svg width="48" height="48" viewBox="0 0 48 48" fill="none" xmlns="http://www.w3.org/2000/svg">
<path d="M24 48C37.2544 48 48 37.2544 48 24C48 10.7456 37.2544 0 24 0C10.7456 0 0 10.7456 0 24C0 37.2544 10.7456 48 24 48ZM24 2.27219C35.9763 2.27219 45.7278 12.0237 45.7278 24C45.7278 35.9763 35.9763 45.7278 24 45.7278C12.0237 45.7278 2.27219 35.9763 2.27219 24C2.27219 12.0237 12.0237 2.27219 24 2.27219Z" fill="#023E73"/>
<path d="M12.8183 24.9916L32.5111 24.9916L25.4514 31.2393C25.0334 31.6093 25.0334 32.2669 25.4514 32.6369C25.8694 33.0068 26.6125 33.0068 27.0305 32.6369L36.0409 24.7039C36.1338 24.6217 36.2267 24.4984 36.2732 24.3751C36.3661 24.1285 36.3661 23.8407 36.2732 23.6352C36.2267 23.5119 36.1338 23.3886 36.0409 23.3064L27.0305 15.3735C26.7983 15.1679 26.5196 15.0857 26.241 15.0857C25.9623 15.0857 25.6836 15.1679 25.4514 15.3735C25.0334 15.7434 25.0334 16.401 25.4514 16.771L32.5111 23.0187L12.7718 23.0187C12.168 23.0187 11.6571 23.4708 11.6571 24.0052C11.6571 24.5395 12.168 24.9916 12.8183 24.9916Z" fill="#023E73"/>
</svg>
