<svg width="48" height="48" viewBox="0 0 48 48" fill="none" xmlns="http://www.w3.org/2000/svg">
<path d="M24 0C10.7456 0 0 10.7456 0 24C0 37.2544 10.7456 48 24 48C37.2544 48 48 37.2544 48 24C48 10.7456 37.2544 0 24 0ZM24 45.7278C12.0237 45.7278 2.27219 35.9763 2.27219 24C2.27219 12.0237 12.0237 2.27219 24 2.27219C35.9763 2.27219 45.7278 12.0237 45.7278 24C45.7278 35.9763 35.9763 45.7278 24 45.7278Z" fill="#023E73"/>
<path d="M35.1817 23.0084H15.4889L22.5486 16.7607C22.9666 16.3907 22.9666 15.7331 22.5486 15.3631C22.1306 14.9932 21.3875 14.9932 20.9695 15.3631L11.9591 23.2961C11.8662 23.3783 11.7733 23.5016 11.7268 23.6249C11.6339 23.8715 11.6339 24.1593 11.7268 24.3648C11.7733 24.4881 11.8662 24.6114 11.9591 24.6936L20.9695 32.6265C21.2017 32.8321 21.4804 32.9143 21.759 32.9143C22.0377 32.9143 22.3164 32.8321 22.5486 32.6265C22.9666 32.2566 22.9666 31.599 22.5486 31.229L15.4889 24.9813H35.2282C35.832 24.9813 36.3429 24.5292 36.3429 23.9948C36.3429 23.4605 35.832 23.0084 35.1817 23.0084Z" fill="#023E73"/>
</svg>
