<svg width="56" height="56" viewBox="0 0 56 56" fill="none" xmlns="http://www.w3.org/2000/svg">
<path d="M43.6953 1.03906H12.3047C5.88438 1.03906 0.65625 6.26719 0.65625 12.6875V43.3125C0.65625 49.7328 5.88438 54.9609 12.3047 54.9609H43.6953C50.1156 54.9609 55.3438 49.7328 55.3438 43.3125V12.6875C55.3438 6.26719 50.1156 1.03906 43.6953 1.03906ZM53.1562 43.3125C53.1562 48.5297 48.9125 52.7734 43.6953 52.7734H12.3047C7.0875 52.7734 2.84375 48.5297 2.84375 43.3125V12.6875C2.84375 7.47031 7.0875 3.22656 12.3047 3.22656H43.6953C48.9125 3.22656 53.1562 7.47031 53.1562 12.6875V43.3125Z" fill="#F15C05"/>
<path d="M28 14.5468C20.5844 14.5468 14.5469 20.5843 14.5469 28C14.5469 35.4156 20.5844 41.4531 28 41.4531C35.4156 41.4531 41.4531 35.4156 41.4531 28C41.4531 20.5843 35.4156 14.5468 28 14.5468ZM28 39.2656C21.7875 39.2656 16.7344 34.2125 16.7344 28C16.7344 21.7875 21.7875 16.7343 28 16.7343C34.2125 16.7343 39.2656 21.7875 39.2656 28C39.2656 34.2125 34.2125 39.2656 28 39.2656ZM43.9359 8.95776C41.8797 8.95776 40.2063 10.6312 40.2063 12.6875C40.2063 14.7437 41.8797 16.4171 43.9359 16.4171C45.9922 16.4171 47.6656 14.7437 47.6656 12.6875C47.6656 10.6312 45.9922 8.95776 43.9359 8.95776ZM43.9359 14.2296C43.0828 14.2296 42.3938 13.5406 42.3938 12.6875C42.3938 11.8343 43.0828 11.1453 43.9359 11.1453C44.7891 11.1453 45.4781 11.8343 45.4781 12.6875C45.4781 13.5406 44.7891 14.2296 43.9359 14.2296Z" fill="#F15C05"/>
</svg>
