<svg width="140" height="60" viewBox="0 0 140 60" fill="none" xmlns="http://www.w3.org/2000/svg">
<path fill-rule="evenodd" clip-rule="evenodd" d="M18.1349 4.45142L25.3789 17.0503C26.48 16.5414 27.6822 16.2154 28.9458 16.1111V1.88438C25.0937 2.01057 21.44 2.91722 18.1349 4.45142ZM30.8072 1.88438V16.1192C32.0766 16.2352 33.2825 16.5749 34.3848 17.0989L41.6486 4.46557C38.3355 2.92279 34.6712 2.01096 30.8072 1.88438ZM43.3128 5.30947L35.9911 18.0434C36.9938 18.758 37.868 19.6422 38.5723 20.6547L52.0695 12.8298C49.707 9.75567 46.7254 7.18606 43.3128 5.30947ZM53.1625 14.3545L39.5008 22.2747C40.0034 23.3618 40.3296 24.5477 40.4426 25.7944H57.5807C56.9559 21.6083 55.4125 17.7241 53.1625 14.3545ZM57.7963 27.6636H40.4506C40.3191 29.27 39.8339 30.7774 39.0729 32.1054C38.662 32.8225 38.1709 33.487 37.6119 34.0867L40.3494 37.8829L42.8808 34.9938C44.2521 33.4288 46.6804 33.4288 48.0517 34.9938L54.8528 42.7557C56.7957 38.9278 57.8915 34.5935 57.8915 30C57.8915 29.213 57.8594 28.4338 57.7963 27.6636ZM53.8937 44.4908L46.6542 36.2285C46.0241 35.5094 44.9084 35.5094 44.2784 36.2285L25.4001 57.7737C26.8577 58.0087 28.3529 58.1308 29.8765 58.1308C40.0688 58.1308 48.991 52.6659 53.8937 44.4908ZM23.2923 57.3496L28.6722 51.2098L15.3816 36.0416C14.7515 35.3225 13.6358 35.3225 13.0058 36.0416L5.75541 44.3162C9.55717 50.7605 15.8455 55.5486 23.2923 57.3496ZM4.80652 42.5695L11.6082 34.8069C12.9795 33.2419 15.4078 33.2419 16.7791 34.8069L19.4355 37.8386L22.1007 34.1428C21.5314 33.5407 21.031 32.872 20.6124 32.1494C19.8369 30.8107 19.3423 29.2877 19.2093 27.6636H1.95666C1.89362 28.4338 1.86146 29.213 1.86146 30C1.86146 34.5193 2.92209 38.7875 4.80652 42.5695ZM2.17231 25.7944H19.2173C19.3318 24.5315 19.665 23.3311 20.1787 22.2325L6.59024 14.3548C4.34035 17.7243 2.79706 21.6084 2.17231 25.7944ZM7.68327 12.8301L21.1143 20.6166C21.8359 19.5887 22.7332 18.6944 23.7625 17.9774L16.4695 5.29337C13.0446 7.17142 10.0525 9.74703 7.68327 12.8301ZM23.2154 32.597L27.0872 27.2277C28.4621 25.3212 31.2909 25.3212 32.6658 27.2277L36.4953 32.5383C36.8578 32.1161 37.181 31.6591 37.4594 31.1732C38.201 29.8792 38.6254 28.3786 38.6254 26.7757C38.6254 26.7615 38.6253 26.7474 38.6253 26.7334C38.6179 25.1463 38.1943 23.6605 37.4591 22.3776C36.6949 21.0441 35.5934 19.9293 34.2721 19.1513C32.9805 18.3907 31.4784 17.9516 29.8722 17.944C29.8581 17.944 29.844 17.9439 29.83 17.9439C28.2445 17.9439 26.7597 18.3643 25.477 19.0994C24.1283 19.8725 23.0024 20.994 22.2217 22.3414C21.4736 23.6324 21.0421 25.1312 21.0346 26.7334C21.0346 26.7474 21.0345 26.7615 21.0345 26.7757C21.0345 28.3936 21.4669 29.9072 22.2214 31.2095C22.5081 31.7044 22.8414 32.1689 23.2154 32.597ZM20.6962 39.2774L29.9118 49.7949L39.0887 39.3217L31.158 28.324C30.5264 27.448 29.2266 27.448 28.5949 28.324L20.6962 39.2774ZM16.4082 3.21423C20.4562 1.15803 25.033 0 29.8765 0C34.7323 0 39.32 1.16392 43.3756 3.2299C47.6915 5.42845 51.4033 8.64773 54.1967 12.5712C57.0799 16.6208 58.9856 21.4218 59.5659 26.625C59.6896 27.7332 59.753 28.8593 59.753 30C59.753 35.3981 58.3323 40.4657 55.8453 44.8437C50.7035 53.8948 41.0006 60 29.8765 60C18.6771 60 8.91827 53.8119 3.80393 44.6595C1.38117 40.3238 0 35.3225 0 30C0 28.8593 0.0634423 27.7332 0.187047 26.625C0.767366 21.422 2.67297 16.621 5.55608 12.5715C8.35618 8.63857 12.0791 5.4132 16.4082 3.21423Z" fill="#023E73"/>
<path d="M77.8783 15.3212V30.0978H75.9232V17.1788H69.154V30.0978H67.1989V15.3212H77.8783Z" fill="#023E73"/>
<path d="M93.6916 28.1346C92.22 29.6263 90.4191 30.3722 88.2888 30.3722C86.1585 30.3722 84.3575 29.6263 82.886 28.1346C81.4144 26.6429 80.6786 24.8345 80.6786 22.7095C80.6786 20.5704 81.4144 18.762 82.886 17.2843C84.3575 15.7926 86.1585 15.0467 88.2888 15.0467C90.4191 15.0467 92.22 15.7926 93.6916 17.2843C95.1772 18.762 95.92 20.5704 95.92 22.7095C95.92 24.8345 95.1772 26.6429 93.6916 28.1346ZM84.2314 26.8047C85.3246 27.9024 86.677 28.4512 88.2888 28.4512C89.9005 28.4512 91.2459 27.9024 92.3251 26.8047C93.4183 25.6929 93.9649 24.3279 93.9649 22.7095C93.9649 21.077 93.4183 19.7119 92.3251 18.6142C91.2459 17.5025 89.9005 16.9466 88.2888 16.9466C86.677 16.9466 85.3246 17.5025 84.2314 18.6142C83.1522 19.7119 82.6127 21.077 82.6127 22.7095C82.6127 24.3279 83.1522 25.6929 84.2314 26.8047Z" fill="#023E73"/>
<path d="M104.031 15.3212C105.39 15.3212 106.518 15.7785 107.415 16.6933C108.326 17.5939 108.782 18.7198 108.782 20.0708C108.782 21.4077 108.326 22.5336 107.415 23.4483C106.518 24.363 105.39 24.8204 104.031 24.8204H100.646V30.0978H98.6908V15.3212H104.031ZM104.031 22.9839C104.843 22.9839 105.516 22.7095 106.049 22.1606C106.581 21.5977 106.848 20.9011 106.848 20.0708C106.848 19.2264 106.581 18.5298 106.049 17.9809C105.516 17.4321 104.843 17.1577 104.031 17.1577H100.646V22.9839H104.031Z" fill="#023E73"/>
<path d="M121.806 30.0978L120.608 26.7836H113.986L112.788 30.0978H110.706L116.193 15.3212H118.401L123.888 30.0978H121.806ZM114.659 24.9471H119.935L117.286 17.6643L114.659 24.9471Z" fill="#023E73"/>
<path d="M137.435 22.435C138.108 22.7587 138.641 23.2231 139.033 23.8283C139.439 24.4334 139.643 25.13 139.643 25.9181C139.643 27.1002 139.229 28.0924 138.402 28.8945C137.575 29.6967 136.566 30.0978 135.375 30.0978H129.026V15.3212H134.913C136.062 15.3212 137.036 15.7082 137.835 16.4822C138.634 17.2562 139.033 18.2132 139.033 19.3531C139.033 20.6618 138.5 21.6892 137.435 22.435ZM134.913 17.1577H130.981V21.6751H134.913C135.529 21.6751 136.048 21.457 136.468 21.0207C136.889 20.5844 137.099 20.0497 137.099 19.4164C137.099 18.7972 136.882 18.2694 136.447 17.8332C136.027 17.3828 135.515 17.1577 134.913 17.1577ZM135.375 28.2613C136.034 28.2613 136.587 28.0291 137.036 27.5646C137.484 27.1002 137.709 26.5303 137.709 25.8548C137.709 25.1933 137.477 24.6304 137.015 24.166C136.566 23.7016 136.02 23.4694 135.375 23.4694H130.981V28.2613H135.375Z" fill="#023E73"/>
<path d="M77.8783 33.6389V48.4155H75.9232V35.4965H69.154V48.4155H67.1989V33.6389H77.8783Z" fill="#023E73"/>
<path d="M93.9281 46.4524C92.4565 47.9441 90.6555 48.69 88.5253 48.69C86.395 48.69 84.594 47.9441 83.1225 46.4524C81.6509 44.9606 80.9151 43.1522 80.9151 41.0272C80.9151 38.8881 81.6509 37.0798 83.1225 35.6021C84.594 34.1104 86.395 33.3645 88.5253 33.3645C90.6555 33.3645 92.4565 34.1104 93.9281 35.6021C95.4137 37.0798 96.1565 38.8881 96.1565 41.0272C96.1565 43.1522 95.4137 44.9606 93.9281 46.4524ZM84.4679 45.1225C85.5611 46.2202 86.9135 46.769 88.5253 46.769C90.137 46.769 91.4824 46.2202 92.5616 45.1225C93.6548 44.0107 94.2014 42.6456 94.2014 41.0272C94.2014 39.3948 93.6548 38.0297 92.5616 36.932C91.4824 35.8202 90.137 35.2643 88.5253 35.2643C86.9135 35.2643 85.5611 35.8202 84.4679 36.932C83.3887 38.0297 82.8492 39.3948 82.8492 41.0272C82.8492 42.6456 83.3887 44.0107 84.4679 45.1225Z" fill="#023E73"/>
<path d="M108.935 48.4155H106.707L103.091 42.5893L99.4749 48.4155H97.2675L101.998 40.8161L97.5408 33.6389H99.7482L103.091 39.0218L106.433 33.6389H108.641L104.205 40.795L108.935 48.4155Z" fill="#023E73"/>
<path d="M123.06 46.4524C121.588 47.9441 119.787 48.69 117.657 48.69C115.527 48.69 113.726 47.9441 112.254 46.4524C110.783 44.9606 110.047 43.1522 110.047 41.0272C110.047 38.8881 110.783 37.0798 112.254 35.6021C113.726 34.1104 115.527 33.3645 117.657 33.3645C119.787 33.3645 121.588 34.1104 123.06 35.6021C124.546 37.0798 125.288 38.8881 125.288 41.0272C125.288 43.1522 124.546 44.9606 123.06 46.4524ZM113.6 45.1225C114.693 46.2202 116.045 46.769 117.657 46.769C119.269 46.769 120.614 46.2202 121.693 45.1225C122.787 44.0107 123.333 42.6456 123.333 41.0272C123.333 39.3948 122.787 38.0297 121.693 36.932C120.614 35.8202 119.269 35.2643 117.657 35.2643C116.045 35.2643 114.693 35.8202 113.6 36.932C112.521 38.0297 111.981 39.3948 111.981 41.0272C111.981 42.6456 112.521 44.0107 113.6 45.1225Z" fill="#023E73"/>
<path d="M138.423 46.5579H140V51.2442H138.045V48.4155H128.332V51.2442H126.377V46.5579H127.66C128.571 45.418 129.026 43.687 129.026 41.365V33.6389H138.423V46.5579ZM129.867 46.5579H136.468V35.4754H130.981V41.4072C130.981 43.6448 130.61 45.3617 129.867 46.5579Z" fill="#023E73"/>
</svg>
