<svg width="144" height="144" viewBox="0 0 144 144" fill="none" xmlns="http://www.w3.org/2000/svg">
<path d="M123.091 123.091C123.505 122.666 123.735 122.094 123.73 121.5H123.75V4.5C123.75 3.90326 123.513 3.33097 123.091 2.90901C122.669 2.48705 122.097 2.25 121.5 2.25H22.5C21.9033 2.25 21.331 2.48705 20.909 2.90901C20.4871 3.33097 20.25 3.90326 20.25 4.5V130.5C20.2536 133.483 21.44 136.342 23.549 138.451C25.658 140.56 28.5174 141.746 31.5 141.75H121.5C121.945 141.75 122.38 141.618 122.75 141.371C123.12 141.123 123.408 140.772 123.578 140.361C123.749 139.95 123.793 139.498 123.706 139.061C123.62 138.625 123.405 138.224 123.091 137.909L117.932 132.75C117.335 132.153 117 131.344 117 130.5C117 129.656 117.335 128.847 117.932 128.25L123.091 123.091ZM92.25 6.75H105.75V21.5685L100.591 16.4093C100.169 15.9874 99.5966 15.7505 99 15.7505C98.4034 15.7505 97.8312 15.9874 97.4092 16.4093L92.25 21.5685V6.75ZM38.25 6.75V119.25H31.5C29.0577 119.258 26.6859 120.069 24.75 121.559V6.75H38.25ZM112.871 128.25H36V132.75H112.871C113.227 133.949 113.872 135.042 114.75 135.932L116.068 137.25H31.5C29.7098 137.25 27.9929 136.539 26.727 135.273C25.4612 134.007 24.75 132.29 24.75 130.5C24.75 128.71 25.4612 126.993 26.727 125.727C27.9929 124.461 29.7098 123.75 31.5 123.75H116.068L114.75 125.068C113.872 125.958 113.227 127.051 112.871 128.25ZM42.75 119.25V6.75H87.75V27C87.7501 27.4449 87.8821 27.8799 88.1293 28.2498C88.3766 28.6197 88.728 28.908 89.139 29.0783C89.5501 29.2485 90.0024 29.2931 90.4388 29.2063C90.8752 29.1195 91.2761 28.9053 91.5908 28.5907L99 21.1815L106.409 28.5907C106.724 28.9053 107.125 29.1195 107.561 29.2063C107.998 29.2931 108.45 29.2485 108.861 29.0783C109.272 28.908 109.623 28.6197 109.871 28.2498C110.118 27.8799 110.25 27.4449 110.25 27V6.75H119.25V119.25H42.75Z" fill="#023E73"/>
<path d="M58.5 65.25H61.9245C62.13 65.8305 62.3595 66.399 62.613 66.9555L59.1592 70.4092C58.7374 70.8312 58.5005 71.4034 58.5005 72C58.5005 72.5966 58.7374 73.1688 59.1592 73.5908L65.9092 80.3408C66.3312 80.7626 66.9034 80.9995 67.5 80.9995C68.0966 80.9995 68.6688 80.7626 69.0908 80.3408L72.5445 76.887C73.0995 77.1405 73.668 77.37 74.25 77.5755V81C74.25 81.5967 74.4871 82.169 74.909 82.591C75.331 83.0129 75.9033 83.25 76.5 83.25H85.5C86.0967 83.25 86.669 83.0129 87.091 82.591C87.5129 82.169 87.75 81.5967 87.75 81V77.5755C88.3305 77.37 88.899 77.1405 89.4555 76.887L92.9092 80.3408C93.3312 80.7626 93.9034 80.9995 94.5 80.9995C95.0966 80.9995 95.6688 80.7626 96.0908 80.3408L102.841 73.5908C103.263 73.1688 103.5 72.5966 103.5 72C103.5 71.4034 103.263 70.8312 102.841 70.4092L99.387 66.9555C99.6405 66.4005 99.87 65.832 100.076 65.25H103.5C104.097 65.25 104.669 65.0129 105.091 64.591C105.513 64.169 105.75 63.5967 105.75 63V54C105.75 53.4033 105.513 52.831 105.091 52.409C104.669 51.9871 104.097 51.75 103.5 51.75H100.076C99.87 51.1695 99.6405 50.601 99.387 50.0445L102.841 46.5908C103.263 46.1688 103.5 45.5966 103.5 45C103.5 44.4034 103.263 43.8312 102.841 43.4092L96.0908 36.6592C95.6688 36.2374 95.0966 36.0005 94.5 36.0005C93.9034 36.0005 93.3312 36.2374 92.9092 36.6592L89.4555 40.113C88.9005 39.8595 88.332 39.63 87.75 39.4245V36C87.75 35.4033 87.5129 34.831 87.091 34.409C86.669 33.9871 86.0967 33.75 85.5 33.75H76.5C75.9033 33.75 75.331 33.9871 74.909 34.409C74.4871 34.831 74.25 35.4033 74.25 36V39.4245C73.6695 39.63 73.101 39.8595 72.5445 40.113L69.0908 36.6592C68.6688 36.2374 68.0966 36.0005 67.5 36.0005C66.9034 36.0005 66.3312 36.2374 65.9092 36.6592L59.1592 43.4092C58.7374 43.8312 58.5005 44.4034 58.5005 45C58.5005 45.5966 58.7374 46.1688 59.1592 46.5908L62.613 50.0445C62.3595 50.5995 62.13 51.168 61.9245 51.75H58.5C57.9033 51.75 57.331 51.9871 56.909 52.409C56.4871 52.831 56.25 53.4033 56.25 54V63C56.25 63.5967 56.4871 64.169 56.909 64.591C57.331 65.0129 57.9033 65.25 58.5 65.25ZM60.75 56.25H63.5895C64.0882 56.2499 64.5728 56.0841 64.967 55.7786C65.3612 55.4732 65.6428 55.0454 65.7675 54.5625C66.1122 53.2247 66.6327 51.9385 67.3155 50.7375C67.5584 50.3095 67.6542 49.8137 67.5884 49.3261C67.5225 48.8384 67.2986 48.3858 66.951 48.0375L63.9315 45L67.5 41.4315L70.5195 44.451C70.8678 44.7986 71.3204 45.0225 71.8081 45.0884C72.2957 45.1542 72.7915 45.0584 73.2195 44.8155C74.4205 44.1327 75.7067 43.6122 77.0445 43.2675C77.5274 43.1428 77.9552 42.8612 78.2606 42.467C78.5661 42.0728 78.7319 41.5882 78.732 41.0895V38.25H83.232V41.0895C83.2321 41.5882 83.3979 42.0728 83.7034 42.467C84.0088 42.8612 84.4366 43.1428 84.9195 43.2675C86.2573 43.6122 87.5435 44.1327 88.7445 44.8155C89.1725 45.0584 89.6683 45.1542 90.1559 45.0884C90.6436 45.0225 91.0962 44.7986 91.4445 44.451L94.5 41.4315L98.0685 45L95.049 48.0195C94.7014 48.3678 94.4775 48.8204 94.4116 49.3081C94.3458 49.7957 94.4416 50.2915 94.6845 50.7195C95.3673 51.9205 95.8878 53.2067 96.2325 54.5445C96.3572 55.0274 96.6388 55.4552 97.033 55.7606C97.4272 56.0661 97.9118 56.2319 98.4105 56.232H101.25V60.732H98.4105C97.9118 60.7321 97.4272 60.8979 97.033 61.2034C96.6388 61.5088 96.3572 61.9366 96.2325 62.4195C95.8878 63.7573 95.3673 65.0435 94.6845 66.2445C94.4416 66.6725 94.3458 67.1683 94.4116 67.6559C94.4775 68.1436 94.7014 68.5962 95.049 68.9445L98.0685 72L94.5 75.5685L91.4805 72.549C91.1322 72.2014 90.6796 71.9775 90.1919 71.9116C89.7043 71.8458 89.2085 71.9416 88.7805 72.1845C87.5795 72.8673 86.2933 73.3878 84.9555 73.7325C84.4726 73.8572 84.0448 74.1388 83.7394 74.533C83.4339 74.9272 83.2681 75.4118 83.268 75.9105V78.75H78.75V75.9105C78.7499 75.4118 78.5841 74.9272 78.2786 74.533C77.9732 74.1388 77.5454 73.8572 77.0625 73.7325C75.7247 73.3878 74.4385 72.8673 73.2375 72.1845C72.8095 71.9416 72.3137 71.8458 71.8261 71.9116C71.3384 71.9775 70.8858 72.2014 70.5375 72.549L67.5 75.5685L63.9315 72L66.951 68.9805C67.2986 68.6322 67.5225 68.1796 67.5884 67.6919C67.6542 67.2043 67.5584 66.7085 67.3155 66.2805C66.6327 65.0795 66.1122 63.7933 65.7675 62.4555C65.6428 61.9726 65.3612 61.5448 64.967 61.2394C64.5728 60.9339 64.0882 60.7681 63.5895 60.768H60.75V56.25Z" fill="#023E73"/>
<path d="M81 69.75C83.225 69.75 85.4001 69.0902 87.2502 67.854C89.1002 66.6179 90.5422 64.8609 91.3936 62.8052C92.2451 60.7495 92.4679 58.4875 92.0338 56.3052C91.5998 54.123 90.5283 52.1184 88.955 50.5451C87.3816 48.9717 85.3771 47.9003 83.1948 47.4662C81.0125 47.0321 78.7505 47.2549 76.6948 48.1064C74.6391 48.9578 72.8821 50.3998 71.646 52.2498C70.4098 54.0999 69.75 56.275 69.75 58.5C69.7536 61.4826 70.94 64.342 73.049 66.451C75.158 68.56 78.0174 69.7464 81 69.75ZM81 51.75C82.335 51.75 83.6401 52.1459 84.7501 52.8876C85.8601 53.6293 86.7253 54.6835 87.2362 55.9169C87.7471 57.1503 87.8808 58.5075 87.6203 59.8169C87.3599 61.1262 86.717 62.329 85.773 63.273C84.829 64.217 83.6262 64.8599 82.3169 65.1203C81.0075 65.3808 79.6503 65.2471 78.4169 64.7362C77.1835 64.2253 76.1293 63.3601 75.3876 62.2501C74.6459 61.1401 74.25 59.835 74.25 58.5C74.25 56.7098 74.9612 54.9929 76.227 53.727C77.4929 52.4612 79.2098 51.75 81 51.75ZM112.5 87.75H49.5C48.9033 87.75 48.331 87.9871 47.909 88.409C47.4871 88.831 47.25 89.4033 47.25 90V108C47.25 108.597 47.4871 109.169 47.909 109.591C48.331 110.013 48.9033 110.25 49.5 110.25H112.5C113.097 110.25 113.669 110.013 114.091 109.591C114.513 109.169 114.75 108.597 114.75 108V90C114.75 89.4033 114.513 88.831 114.091 88.409C113.669 87.9871 113.097 87.75 112.5 87.75ZM110.25 105.75H51.75V92.25H110.25V105.75Z" fill="#023E73"/>
<path d="M56.25 96.75H105.75V101.25H56.25V96.75Z" fill="#023E73"/>
</svg>
