<svg width="144" height="144" viewBox="0 0 144 144" fill="none" xmlns="http://www.w3.org/2000/svg">
<path d="M11.25 123.75H4.5C4.10287 123.75 3.71283 123.645 3.3695 123.445C3.02618 123.246 2.7418 122.959 2.54526 122.614C2.34872 122.268 2.24701 121.878 2.25048 121.48C2.25395 121.083 2.36247 120.694 2.565 120.353L30.645 73.575C31.4322 72.2608 32.5466 71.173 33.8794 70.4178C35.2122 69.6625 36.7181 69.2655 38.25 69.2655C39.782 69.2655 41.2878 69.6625 42.6206 70.4178C43.9534 71.173 45.0678 72.2608 45.855 73.575L59.085 95.58C59.2825 95.9221 59.3864 96.3101 59.3864 96.705C59.3864 97.1 59.2825 97.488 59.085 97.83C58.8944 98.1785 58.615 98.4703 58.2752 98.6758C57.9353 98.8813 57.5471 98.9932 57.15 99C55.1635 99.0492 53.2695 99.8497 51.8499 101.24C50.4302 102.631 49.5905 104.507 49.5 106.493C49.4787 106.889 49.353 107.272 49.1357 107.604C48.9183 107.936 48.6171 108.205 48.2625 108.383C47.9087 108.56 47.5144 108.641 47.1194 108.617C46.7243 108.593 46.3425 108.466 46.0125 108.248L45.7425 108.113C45.3997 108.058 45.0503 108.058 44.7075 108.113C44.49 108.203 44.2638 108.271 44.0325 108.315L43.7175 108.473H43.5825C43.4463 108.575 43.3251 108.696 43.2225 108.833C43.1345 108.936 43.059 109.049 42.9975 109.17C42.925 109.315 42.8648 109.465 42.8175 109.62C42.7036 110.013 42.485 110.367 42.185 110.644C41.8851 110.922 41.5151 111.113 41.1149 111.196C40.7148 111.279 40.2995 111.252 39.9136 111.117C39.5278 110.982 39.186 110.745 38.925 110.43C38.2094 109.562 37.2881 108.886 36.2449 108.465C35.2017 108.043 34.0697 107.889 32.9518 108.017C31.8339 108.144 30.7656 108.549 29.844 109.195C28.9225 109.84 28.1769 110.706 27.675 111.713C27.4335 112.186 27.0322 112.559 26.5421 112.765C26.052 112.971 25.5048 112.997 24.9975 112.838C24.1843 112.612 23.344 112.498 22.5 112.5C20.1131 112.5 17.8239 113.448 16.136 115.136C14.4482 116.824 13.5 119.113 13.5 121.5C13.5 122.097 13.263 122.669 12.841 123.091C12.419 123.513 11.8467 123.75 11.25 123.75ZM8.4825 119.25H9.18C9.30466 118.564 9.47759 117.887 9.6975 117.225L8.4825 119.25ZM38.25 73.755C37.498 73.756 36.759 73.9512 36.1046 74.3217C35.4502 74.6923 34.9026 75.2256 34.515 75.87L12.69 112.253C14.208 110.63 16.103 109.408 18.2067 108.693C20.3105 107.979 22.558 107.795 24.75 108.158C26.4792 105.768 29.0775 104.154 31.9853 103.661C34.8932 103.169 37.8782 103.838 40.2975 105.525C40.4833 105.327 40.6866 105.146 40.905 104.985C41.1066 104.807 41.3252 104.648 41.5575 104.513L42.435 104.063H42.7725C43.1373 103.897 43.5236 103.783 43.92 103.725C44.4722 103.646 45.0328 103.646 45.585 103.725C46.1409 101.772 47.1652 99.9853 48.569 98.5187C49.9729 97.0522 51.7136 95.9507 53.64 95.31L42.0975 76.0725C41.7264 75.3739 41.1724 74.7891 40.4947 74.3809C39.817 73.9727 39.0411 73.7564 38.25 73.755Z" fill="#023E73"/>
<path d="M139.5 123.75H112.5C111.974 123.761 111.46 123.586 111.049 123.257C110.638 122.929 110.355 122.466 110.25 121.95C110.092 121.176 109.668 120.482 109.051 119.989C108.435 119.496 107.665 119.234 106.875 119.25C106.636 119.227 106.394 119.227 106.155 119.25C105.832 119.311 105.499 119.3 105.18 119.219C104.861 119.137 104.564 118.986 104.31 118.778C104.056 118.566 103.852 118.301 103.712 118.002C103.572 117.702 103.499 117.376 103.5 117.045C103.5 116.448 103.263 115.876 102.841 115.454C102.419 115.032 101.847 114.795 101.25 114.795C100.885 114.775 100.524 114.87 100.215 115.065C99.8829 115.28 99.5001 115.403 99.1051 115.423C98.7101 115.443 98.3168 115.358 97.965 115.178C97.6114 114.995 97.3126 114.721 97.0992 114.385C96.8857 114.049 96.7652 113.663 96.75 113.265C96.6684 111.073 95.8757 108.967 94.4914 107.265C93.1072 105.564 91.2067 104.359 89.0771 103.833C86.9476 103.307 84.7047 103.488 82.6874 104.35C80.67 105.211 78.9878 106.706 77.895 108.608C77.6924 108.969 77.394 109.267 77.0327 109.469C76.6715 109.672 76.2613 109.771 75.8475 109.755C75.4326 109.739 75.0301 109.609 74.6846 109.379C74.3391 109.148 74.0641 108.827 73.89 108.45C73.5387 107.645 72.9595 106.961 72.2239 106.481C71.4882 106.001 70.6283 105.747 69.75 105.75C69.5557 105.727 69.3593 105.727 69.165 105.75L68.355 103.635L68.805 105.885H68.58C68.4677 105.895 68.3548 105.895 68.2425 105.885L67.815 106.043C67.5272 106.14 67.2227 106.177 66.9199 106.153C66.6171 106.13 66.3222 106.045 66.0531 105.904C65.784 105.763 65.5462 105.569 65.354 105.334C65.1619 105.099 65.0193 104.827 64.935 104.535C64.4276 102.928 63.4209 101.525 62.0613 100.53C60.7017 99.5342 59.06 98.9984 57.375 99C56.9402 99.0182 56.5075 98.9292 56.1152 98.7409C55.7228 98.5525 55.3828 98.2707 55.125 97.92L44.775 80.7075C44.5775 80.3655 44.4736 79.9775 44.4736 79.5825C44.4736 79.1876 44.5775 78.7996 44.775 78.4575L63.81 46.7325C65.2868 44.2343 67.5753 42.3178 70.2939 41.3024C73.0126 40.287 75.9971 40.2341 78.75 41.1525C81.6954 42.1875 84.176 44.2375 85.7475 46.935L92.025 57.42C92.5212 58.2295 93.2606 58.8612 94.1376 59.2249C95.0146 59.5886 95.9841 59.6657 96.9075 59.445C98.9351 59.0428 101.037 59.2624 102.938 60.075C104.966 60.9564 106.661 62.4618 107.775 64.3725L141.435 120.353C141.638 120.694 141.746 121.083 141.75 121.48C141.753 121.877 141.651 122.268 141.455 122.614C141.258 122.959 140.974 123.246 140.631 123.445C140.287 123.645 139.897 123.75 139.5 123.75ZM113.985 119.25H135.518L104.018 66.69C103.379 65.5989 102.41 64.7397 101.25 64.2375C100.178 63.7559 98.982 63.6221 97.83 63.855C95.9935 64.2572 94.0772 64.0742 92.3501 63.3317C90.6229 62.5892 89.1717 61.3244 88.2 59.715L81.9225 49.2525C80.9214 47.486 79.3272 46.131 77.4225 45.4275C75.6491 44.8202 73.721 44.8396 71.9602 45.4825C70.1994 46.1254 68.7124 47.3529 67.7475 48.96L49.5 79.5375L58.5 94.5C60.599 94.6924 62.6153 95.4121 64.3618 96.5921C66.1083 97.7722 67.5283 99.3744 68.49 101.25C68.9093 101.216 69.3307 101.216 69.75 101.25C72.0371 101.258 74.2378 102.125 75.915 103.68C77.7169 101.737 80.0127 100.321 82.5571 99.5816C85.1015 98.8423 87.799 98.8082 90.3613 99.4829C92.9236 100.158 95.2545 101.516 97.1049 103.412C98.9554 105.308 100.256 107.672 100.868 110.25C102.328 110.167 103.777 110.561 104.994 111.373C106.211 112.184 107.132 113.37 107.618 114.75C108.979 114.878 110.284 115.362 111.401 116.151C112.518 116.941 113.409 118.009 113.985 119.25ZM47.25 56.25H38.25C37.9149 56.2561 37.5826 56.1873 37.2774 56.0485C36.9723 55.9097 36.702 55.7045 36.4864 55.4479C36.2707 55.1913 36.1152 54.8897 36.031 54.5653C35.9468 54.2408 35.9363 53.9016 36 53.5725C36.0233 53.3406 36.0233 53.1069 36 52.875C36.0095 52.0802 35.7401 51.3072 35.2385 50.6906C34.737 50.0739 34.0351 49.6526 33.255 49.5C32.7925 49.4099 32.37 49.1768 32.047 48.8336C31.7241 48.4905 31.517 48.0546 31.455 47.5875C31.4043 46.0957 30.763 44.6851 29.6722 43.6661C28.5815 42.647 27.1306 42.103 25.6388 42.1538C24.1469 42.2045 22.7363 42.8458 21.7173 43.9365C20.6983 45.0273 20.1543 46.4782 20.205 47.97C20.1822 48.3556 20.0604 48.7288 19.8515 49.0538C19.6426 49.3787 19.3536 49.6443 19.0123 49.8252C18.671 50.006 18.2888 50.0959 17.9027 50.0863C17.5165 50.0766 17.1394 49.9677 16.8075 49.77C16.3818 49.5291 15.8891 49.4334 15.4042 49.4975C14.9192 49.5617 14.4684 49.7821 14.1199 50.1255C13.7715 50.4688 13.5444 50.9164 13.4732 51.4003C13.4019 51.8843 13.4903 52.3783 13.725 52.8075C13.9361 53.1452 14.0539 53.5329 14.0662 53.9309C14.0785 54.329 13.9849 54.7232 13.795 55.0733C13.6051 55.4233 13.3256 55.7167 12.9852 55.9235C12.6449 56.1302 12.2557 56.2429 11.8575 56.25H4.5C3.90326 56.25 3.33097 56.013 2.90901 55.591C2.48705 55.1691 2.25 54.5968 2.25 54C2.25 53.4033 2.48705 52.831 2.90901 52.409C3.33097 51.9871 3.90326 51.75 4.5 51.75H9C9 49.9598 9.71116 48.2429 10.977 46.977C12.2429 45.7112 13.9598 45 15.75 45H16.3125C17.0249 42.9746 18.3627 41.228 20.1326 40.0127C21.9026 38.7973 24.0131 38.1761 26.1592 38.2387C28.3053 38.3013 30.376 39.0445 32.0721 40.361C33.7682 41.6774 35.0019 43.499 35.595 45.5625C36.8824 46.0747 38.0128 46.9157 38.8735 48.0014C39.7343 49.0872 40.2951 50.3797 40.5 51.75H47.25C47.8467 51.75 48.419 51.9871 48.841 52.409C49.2629 52.831 49.5 53.4033 49.5 54C49.5 54.5968 49.2629 55.1691 48.841 55.591C48.419 56.013 47.8467 56.25 47.25 56.25ZM139.5 38.25H130.5C130.165 38.2561 129.833 38.1873 129.527 38.0485C129.222 37.9097 128.952 37.7045 128.736 37.4479C128.521 37.1913 128.365 36.8897 128.281 36.5653C128.197 36.2408 128.186 35.9016 128.25 35.5725C128.273 35.3406 128.273 35.1069 128.25 34.875C128.26 34.0802 127.99 33.3072 127.489 32.6906C126.987 32.0739 126.285 31.6526 125.505 31.5C125.042 31.4099 124.62 31.1768 124.297 30.8336C123.974 30.4905 123.767 30.0546 123.705 29.5875C123.654 28.0957 123.013 26.6851 121.922 25.6661C120.831 24.647 119.381 24.103 117.889 24.1538C116.397 24.2045 114.986 24.8458 113.967 25.9365C112.948 27.0273 112.404 28.4782 112.455 29.97C112.432 30.3556 112.31 30.7288 112.102 31.0538C111.893 31.3787 111.604 31.6443 111.262 31.8252C110.921 32.006 110.539 32.0959 110.153 32.0863C109.767 32.0766 109.389 31.9677 109.058 31.77C108.632 31.5291 108.139 31.4334 107.654 31.4975C107.169 31.5617 106.718 31.7821 106.37 32.1255C106.021 32.4688 105.794 32.9164 105.723 33.4003C105.652 33.8843 105.74 34.3783 105.975 34.8075C106.186 35.1452 106.304 35.5329 106.316 35.9309C106.328 36.329 106.235 36.7232 106.045 37.0733C105.855 37.4233 105.576 37.7167 105.235 37.9235C104.895 38.1302 104.506 38.2429 104.107 38.25H96.75C96.1533 38.25 95.581 38.013 95.159 37.591C94.7371 37.1691 94.5 36.5968 94.5 36C94.5 35.4033 94.7371 34.831 95.159 34.409C95.581 33.9871 96.1533 33.75 96.75 33.75H101.25C101.25 31.9598 101.961 30.2429 103.227 28.977C104.493 27.7112 106.21 27 108 27H108.562C109.275 24.9746 110.613 23.228 112.383 22.0127C114.153 20.7973 116.263 20.1761 118.409 20.2387C120.555 20.3013 122.626 21.0445 124.322 22.361C126.018 23.6774 127.252 25.499 127.845 27.5625C129.132 28.0747 130.263 28.9157 131.124 30.0014C131.984 31.0872 132.545 32.3797 132.75 33.75H139.5C140.097 33.75 140.669 33.9871 141.091 34.409C141.513 34.831 141.75 35.4033 141.75 36C141.75 36.5968 141.513 37.1691 141.091 37.591C140.669 38.013 140.097 38.25 139.5 38.25ZM49.5 42.75C47.275 42.75 45.0999 42.0902 43.2498 40.854C41.3998 39.6179 39.9578 37.8609 39.1064 35.8052C38.2549 33.7495 38.0321 31.4875 38.4662 29.3053C38.9002 27.123 39.9717 25.1184 41.545 23.5451C43.1184 21.9717 45.1229 20.9003 47.3052 20.4662C49.4875 20.0321 51.7495 20.2549 53.8052 21.1064C55.8609 21.9579 57.6179 23.3998 58.854 25.2499C60.0902 27.0999 60.75 29.275 60.75 31.5C60.75 34.4837 59.5647 37.3452 57.455 39.455C55.3452 41.5648 52.4837 42.75 49.5 42.75ZM49.5 24.75C48.165 24.75 46.8599 25.1459 45.7499 25.8876C44.6399 26.6293 43.7747 27.6835 43.2638 28.9169C42.7529 30.1503 42.6192 31.5075 42.8797 32.8169C43.1401 34.1262 43.783 35.329 44.727 36.273C45.671 37.217 46.8738 37.8599 48.1831 38.1203C49.4925 38.3808 50.8497 38.2471 52.0831 37.7362C53.3165 37.2253 54.3707 36.3601 55.1124 35.2501C55.8541 34.1401 56.25 32.835 56.25 31.5C56.25 29.7098 55.5388 27.9929 54.273 26.727C53.0071 25.4612 51.2902 24.75 49.5 24.75ZM42.75 108.675C42.2693 108.671 41.8024 108.514 41.4178 108.225C41.0331 107.937 40.7509 107.533 40.6126 107.073C40.4742 106.612 40.4869 106.12 40.6489 105.667C40.8108 105.214 41.1135 104.826 41.5125 104.558C41.8002 104.358 42.1097 104.192 42.435 104.063C42.7067 103.919 43.0049 103.833 43.3112 103.81C43.6174 103.786 43.9252 103.825 44.2157 103.925C44.5062 104.025 44.7731 104.184 45.0001 104.391C45.227 104.597 45.4092 104.849 45.5354 105.129C45.6615 105.409 45.729 105.712 45.7337 106.019C45.7384 106.326 45.6801 106.631 45.5625 106.915C45.4449 107.198 45.2704 107.455 45.0499 107.669C44.8293 107.882 44.5673 108.049 44.28 108.158L43.9875 108.293C43.6252 108.546 43.1924 108.68 42.75 108.675Z" fill="#023E73"/>
<path d="M49.5 112.5C48.9033 112.5 48.331 112.263 47.909 111.841C47.487 111.419 47.25 110.847 47.25 110.25C47.2494 109.874 47.1543 109.503 46.9735 109.173C46.7926 108.843 46.5319 108.563 46.215 108.36C45.9496 108.209 45.7179 108.005 45.5339 107.761C45.3498 107.517 45.2174 107.238 45.1446 106.942C45.0718 106.645 45.0603 106.337 45.1106 106.035C45.1609 105.734 45.272 105.446 45.4372 105.189C45.6024 104.932 45.8182 104.711 46.0715 104.54C46.3247 104.37 46.6101 104.252 46.9102 104.195C47.2104 104.138 47.519 104.143 47.8172 104.209C48.1155 104.275 48.3971 104.401 48.645 104.58C49.5956 105.19 50.3779 106.029 50.9204 107.019C51.4629 108.01 51.7481 109.121 51.75 110.25C51.75 110.847 51.5129 111.419 51.091 111.841C50.669 112.263 50.0967 112.5 49.5 112.5ZM63 112.5C62.4033 112.5 61.831 112.263 61.409 111.841C60.987 111.419 60.75 110.847 60.75 110.25C60.7487 108.561 61.2228 106.905 62.118 105.473C63.0133 104.041 64.2936 102.889 65.8125 102.15C66.0784 102.02 66.3674 101.944 66.6628 101.925C66.9582 101.907 67.2544 101.947 67.5343 102.043C67.8143 102.139 68.0726 102.29 68.2945 102.485C68.5164 102.681 68.6975 102.919 68.8275 103.185C68.9575 103.451 69.0339 103.74 69.0522 104.035C69.0706 104.331 69.0305 104.627 68.9344 104.907C68.8383 105.187 68.688 105.445 68.4921 105.667C68.2961 105.889 68.0584 106.07 67.7925 106.2C67.0309 106.568 66.3885 107.143 65.9388 107.859C65.4891 108.576 65.2504 109.404 65.25 110.25C65.25 110.847 65.0129 111.419 64.591 111.841C64.169 112.263 63.5967 112.5 63 112.5ZM31.5 94.5C31.0962 94.4999 30.6998 94.3911 30.3525 94.185L23.4 90C22.9495 89.6724 22.6366 89.1894 22.5217 88.6443C22.4069 88.0993 22.4983 87.531 22.7782 87.0495C23.0582 86.5679 23.5068 86.2073 24.0373 86.0375C24.5678 85.8677 25.1424 85.9006 25.65 86.13L31.5 89.595L37.08 85.8825C37.3642 85.6915 37.6883 85.5679 38.0275 85.5211C38.3667 85.4743 38.7122 85.5056 39.0375 85.6125L45 87.75L51.0075 85.725C51.3389 85.6088 51.6929 85.5718 52.0411 85.6169C52.3894 85.662 52.7223 85.788 53.0131 85.9848C53.304 86.1816 53.5447 86.4438 53.7161 86.7503C53.8874 87.0568 53.9847 87.3992 54 87.75C54.015 88.264 53.8535 88.7676 53.5423 89.177C53.2312 89.5864 52.7892 89.8768 52.29 90L45.72 92.25C45.253 92.4078 44.747 92.4078 44.28 92.25L38.5875 90.3375L32.7375 94.23C32.3594 94.4367 31.9298 94.5304 31.5 94.5ZM92.25 78.75C91.9347 78.7377 91.6256 78.6592 91.3426 78.5197C91.0596 78.3802 90.8092 78.1827 90.6075 77.94L80.3475 65.61L74.97 67.5C74.6447 67.607 74.2992 67.6382 73.96 67.5914C73.6208 67.5446 73.2967 67.421 73.0125 67.23L67.5 63.405L54 71.5275C53.7454 71.7127 53.4547 71.8424 53.1469 71.9082C52.839 71.974 52.5207 71.9744 52.2127 71.9095C51.9046 71.8446 51.6136 71.7157 51.3585 71.5313C51.1033 71.3469 50.8897 71.1109 50.7315 70.8388C50.5733 70.5666 50.4739 70.2642 50.4398 69.9513C50.4058 69.6383 50.4378 69.3216 50.5338 69.0218C50.6298 68.722 50.7876 68.4456 50.9971 68.2106C51.2066 67.9756 51.4631 67.7872 51.75 67.6575L66.4875 58.815C66.8451 58.5915 67.2583 58.473 67.68 58.473C68.1017 58.473 68.5149 58.5915 68.8725 58.815L74.7225 62.7075L80.415 60.795C80.8464 60.6495 81.3117 60.6383 81.7496 60.7628C82.1875 60.8874 82.5773 61.1418 82.8675 61.4925L92.5425 73.1025L97.5375 68.085C97.7896 67.8467 98.0934 67.6698 98.4252 67.5684C98.7569 67.4669 99.1077 67.4435 99.45 67.5L110.25 69.75C110.847 69.8664 111.373 70.215 111.712 70.7193C112.052 71.2235 112.178 71.842 112.061 72.4388C111.945 73.0355 111.596 73.5616 111.092 73.9013C110.588 74.2409 109.969 74.3664 109.372 74.25L99.8325 72.3375L93.9375 78.255C93.7039 78.4466 93.434 78.5892 93.1441 78.6742C92.8542 78.7593 92.5501 78.7851 92.25 78.75Z" fill="#023E73"/>
<path d="M112.5 123.75H11.25C10.6533 123.75 10.081 123.513 9.65902 123.091C9.23706 122.669 9.00001 122.097 9.00001 121.5C8.99544 119.534 9.42029 117.591 10.2449 115.806C11.0694 114.022 12.2738 112.439 13.7738 111.168C15.2738 109.897 17.0333 108.969 18.9291 108.449C20.825 107.929 22.8116 107.83 24.75 108.157C26.4792 105.768 29.0775 104.154 31.9853 103.661C34.8932 103.169 37.8782 103.838 40.2975 105.525C40.4833 105.327 40.6866 105.146 40.905 104.985C41.1066 104.807 41.3252 104.648 41.5575 104.512L42.435 104.062H42.7725C43.1373 103.897 43.5236 103.783 43.92 103.725C44.4722 103.646 45.0328 103.646 45.585 103.725C46.3095 101.18 47.8294 98.9331 49.9225 97.3137C52.0156 95.6943 54.5719 94.7872 57.2175 94.725H57.4875C59.7754 94.7214 62.0198 95.3497 63.9732 96.5408C65.9266 97.7319 67.513 99.4394 68.5575 101.475C68.9485 101.369 69.3472 101.294 69.75 101.25C72.0371 101.258 74.2378 102.125 75.915 103.68C77.7169 101.737 80.0127 100.321 82.5571 99.5816C85.1015 98.8423 87.799 98.8082 90.3613 99.4829C92.9236 100.158 95.2545 101.516 97.1049 103.412C98.9554 105.308 100.256 107.672 100.868 110.25C102.328 110.167 103.777 110.561 104.994 111.373C106.211 112.184 107.132 113.37 107.618 114.75C109.297 114.908 110.881 115.601 112.136 116.727C113.392 117.853 114.253 119.353 114.593 121.005C114.657 121.332 114.648 121.669 114.566 121.992C114.485 122.315 114.332 122.616 114.12 122.872C113.927 123.125 113.683 123.333 113.404 123.485C113.125 123.636 112.817 123.726 112.5 123.75ZM13.7925 119.25H105.052C104.783 119.16 104.531 119.023 104.31 118.845C104.056 118.633 103.852 118.369 103.712 118.069C103.572 117.77 103.499 117.443 103.5 117.112C103.5 116.516 103.263 115.943 102.841 115.521C102.419 115.1 101.847 114.862 101.25 114.862C100.885 114.843 100.524 114.937 100.215 115.132C99.8829 115.347 99.5001 115.471 99.1051 115.491C98.7101 115.51 98.3168 115.426 97.965 115.245C97.6114 115.062 97.3126 114.789 97.0992 114.453C96.8857 114.117 96.7653 113.73 96.75 113.332C96.6684 111.14 95.8757 109.035 94.4914 107.333C93.1072 105.631 91.2067 104.426 89.0771 103.9C86.9476 103.374 84.7047 103.556 82.6874 104.417C80.67 105.278 78.9878 106.773 77.895 108.675C77.6924 109.036 77.394 109.334 77.0327 109.537C76.6715 109.739 76.2613 109.838 75.8475 109.822C75.4326 109.807 75.0301 109.677 74.6846 109.446C74.3391 109.216 74.0641 108.894 73.89 108.517C73.549 107.7 72.9742 107.001 72.2377 106.509C71.5012 106.017 70.6359 105.753 69.75 105.75C69.5557 105.727 69.3593 105.727 69.165 105.75L68.355 103.635L68.805 105.885H68.58C68.4677 105.895 68.3548 105.895 68.2425 105.885L67.815 106.042C67.5272 106.139 67.2227 106.177 66.9199 106.153C66.6171 106.129 66.3222 106.045 66.0531 105.904C65.784 105.763 65.5462 105.569 65.354 105.334C65.1619 105.099 65.0193 104.827 64.935 104.535C64.4063 102.756 63.2662 101.221 61.7159 100.2C60.1656 99.1798 58.3047 98.7398 56.4615 98.9577C54.6183 99.1757 52.9114 100.038 51.6418 101.391C50.3722 102.745 49.6217 104.504 49.5225 106.357C49.5012 106.754 49.3755 107.137 49.1581 107.469C48.9408 107.801 48.6396 108.07 48.285 108.247C47.9312 108.425 47.5369 108.506 47.1419 108.482C46.7468 108.458 46.365 108.331 46.035 108.112L45.765 107.977C45.4222 107.923 45.0728 107.923 44.73 107.977C44.5125 108.068 44.2863 108.136 44.055 108.18L43.74 108.337H43.605C43.4688 108.44 43.3476 108.561 43.245 108.697C43.157 108.801 43.0815 108.914 43.02 109.035C42.9475 109.18 42.8873 109.33 42.84 109.485C42.7261 109.878 42.5075 110.232 42.2075 110.509C41.9076 110.787 41.5376 110.978 41.1374 111.061C40.7373 111.144 40.322 111.117 39.9361 110.982C39.5503 110.847 39.2085 110.61 38.9475 110.295C38.2319 109.427 37.3106 108.751 36.2674 108.33C35.2242 107.908 34.0922 107.754 32.9743 107.882C31.8564 108.009 30.7881 108.414 29.8665 109.059C28.945 109.705 28.1994 110.57 27.6975 111.577C27.456 112.051 27.0547 112.424 26.5646 112.63C26.0745 112.836 25.5273 112.862 25.02 112.702C24.1932 112.52 23.3453 112.452 22.5 112.5C20.5059 112.501 18.5687 113.165 16.9927 114.387C15.4167 115.609 14.291 117.319 13.7925 119.25Z" fill="#023E73"/>
</svg>
