<svg width="32" height="32" viewBox="0 0 32 32" fill="none" xmlns="http://www.w3.org/2000/svg">
<path d="M8.5 8C8.5 3.85614 11.8561 0.5 16 0.5C20.1439 0.5 23.5 3.85614 23.5 8C23.5 12.1343 20.1435 15.5 16 15.5C11.8565 15.5 8.5 12.1343 8.5 8ZM0.5 28C0.5 26.851 1.07101 25.8087 2.08954 24.8689C3.11153 23.9259 4.55063 23.1201 6.18698 22.4655C9.46046 21.1558 13.3973 20.5 16 20.5C18.6027 20.5 22.5395 21.1558 25.813 22.4655C27.4494 23.1201 28.8885 23.9259 29.9105 24.8689C30.929 25.8087 31.5 26.851 31.5 28V31.5H0.5V28Z" stroke="white"/>
</svg>
