<svg width="144" height="144" viewBox="0 0 144 144" fill="none" xmlns="http://www.w3.org/2000/svg">
<path d="M71.9728 0.000295977C71.2931 0.0130771 70.6461 0.294055 70.1728 0.781961C69.6994 1.26987 69.4382 1.92513 69.446 2.60487V29.8557L65.7725 33.7917C64.7721 31.5987 63.1158 29.7703 61.0322 28.5588C58.9485 27.3472 56.5402 26.8122 54.1396 27.0276C51.1898 27.3197 48.462 28.7242 46.5106 30.9554C44.5592 33.1867 43.5306 36.0773 43.634 39.0397C43.8089 43.8018 46.8799 47.8155 51.1171 49.4385L42.0596 59.1085L24.9164 44.3752C24.4244 43.9505 23.7897 43.7284 23.1403 43.7537C22.4909 43.7789 21.8753 44.0497 21.4178 44.5112L0.843968 65.0562C-1.68281 67.4762 2.03933 71.2178 4.46892 68.7007L13.4487 59.7305L16.9084 61.4701C17.2671 61.6512 17.6632 61.7455 18.0649 61.7455C18.4667 61.7455 18.8628 61.6512 19.2214 61.4701L22.7006 59.7208L26.5296 63.5499C26.768 63.7891 27.0512 63.9788 27.3631 64.1083C27.6749 64.2378 28.0093 64.3045 28.347 64.3045C28.6847 64.3045 29.019 64.2378 29.3309 64.1083C29.6427 63.9788 29.926 63.7891 30.1643 63.5499L34.4015 59.3029L38.5416 62.8501L31.6124 70.2557C29.2605 72.7533 32.9924 76.2812 35.3442 73.7932C43.9547 64.7161 52.4583 55.5321 60.8938 46.523L65.0727 50.702C65.8502 51.4794 67.0456 51.6738 68.0271 51.1879L71.516 49.4385L75.3256 53.2676C76.2003 54.1423 77.5608 54.2687 78.5715 53.5884L86.2879 48.4473L86.8322 48.0779L102.362 62.4225L96.0938 67.447C93.1297 69.5462 96.6089 73.8904 99.3009 71.451L110.36 62.6072L113.869 66.1253C114.646 66.9028 115.842 67.0971 116.823 66.6112L120.322 64.8619L124.151 68.7007C124.928 69.4782 126.124 69.6725 127.115 69.1769L135.725 64.8716L139.554 68.7007C141.984 71.1303 145.628 67.4859 143.199 65.0562L125.22 47.0575C124.773 46.6039 124.173 46.3327 123.537 46.2968C122.901 46.2609 122.275 46.4627 121.779 46.8631L106.424 59.1765L74.587 29.7585V20.6036H89.9906C90.672 20.6036 91.3256 20.3336 91.8083 19.8527C92.291 19.3718 92.5634 18.7193 92.566 18.0379V5.19C92.5673 4.85098 92.5016 4.51503 92.3728 4.20145C92.2439 3.88786 92.0544 3.6028 91.8151 3.36262C91.5759 3.12244 91.2915 2.93187 90.9784 2.80183C90.6654 2.6718 90.3297 2.60486 89.9906 2.60487H74.587C74.591 2.26092 74.526 1.91966 74.3958 1.60125C74.2657 1.28283 74.0732 0.993705 73.8295 0.750933C73.5858 0.508161 73.296 0.316663 72.9771 0.18774C72.6582 0.0588167 72.3167 -0.00491855 71.9728 0.000295977ZM74.587 7.7557H87.425V15.4528H74.587V7.7557ZM54.6352 32.1492C56.282 31.9863 57.9285 32.4622 59.2344 33.4787C60.5402 34.4952 61.4057 35.9746 61.6519 37.6111L61.7296 38.097L55.1794 45.0943H55.1211C53.4623 45.0675 51.8778 44.4019 50.6975 43.236C49.5172 42.0702 48.8321 40.494 48.7847 38.8356C48.7131 37.18 49.282 35.5605 50.3734 34.3135C51.4647 33.0665 52.9945 32.2879 54.6449 32.1395L54.6352 32.1492ZM72.1477 34.5206L82.9448 44.4918L77.4734 48.146L73.829 44.5015C73.4505 44.1198 72.9617 43.8667 72.4316 43.7777C71.9015 43.6888 71.3569 43.7686 70.8746 44.0059L67.376 45.7552L64.4022 42.7716L72.1477 34.5206ZM23.3615 49.8176L30.5045 55.95L28.347 58.1075L25.033 54.7837C24.6512 54.3973 24.1566 54.142 23.6204 54.0547C23.0842 53.9674 22.5342 54.0525 22.0495 54.2978L18.0649 56.2901L17.2777 55.9014L23.3615 49.8176ZM123.198 52.3444L131.896 61.0425L126.454 63.7442L122.635 59.9151C122.254 59.5329 121.763 59.2803 121.231 59.1931C120.699 59.1058 120.153 59.1885 119.671 59.4292L116.201 61.1785L114.403 59.3806L123.198 52.3444ZM79.728 57.884C77.2596 57.884 74.9855 58.3504 73.1195 59.2834C71.2731 60.2164 69.446 61.8588 69.446 64.3176C69.446 66.7764 71.2633 68.3994 73.1293 69.3227C74.9855 70.2557 77.2596 70.7319 79.7378 70.7319C82.2062 70.7319 84.4512 70.2557 86.3074 69.3227C88.1733 68.3897 89.9906 66.7764 89.9906 64.3176C89.9906 61.8588 88.1733 60.2164 86.3074 59.2834C84.2522 58.3138 81.9999 57.8347 79.728 57.884ZM79.728 63.0348C81.5162 63.0348 83.0906 63.4235 84.0138 63.8803C84.4026 64.0747 84.5386 64.201 84.6553 64.3079C84.5386 64.4051 84.4026 64.5412 84.0138 64.7355C82.6669 65.3257 81.2081 65.6175 79.7378 65.5908C78.2546 65.6197 76.7828 65.328 75.4228 64.7355C75.0341 64.5412 74.898 64.4051 74.7814 64.3079C74.898 64.2107 75.0341 64.0747 75.4228 63.8803C76.7798 63.2892 78.2482 63.0073 79.728 63.0348ZM69.378 70.4403L65.4323 73.7446L68.7074 77.7001L72.6531 74.3958L69.378 70.4403ZM61.4672 77.0295L57.5216 80.3338L60.8258 84.2892L64.7617 80.9849L61.4672 77.0295ZM51.467 84.8724C49.1889 84.8237 46.9304 85.3026 44.8682 86.2718C43.0023 87.2048 41.185 88.857 41.185 91.306C41.185 93.7648 43.0023 95.3878 44.8682 96.3208C46.7341 97.2538 48.9888 97.73 51.467 97.73C53.9452 97.73 56.2096 97.2441 58.0755 96.3208C59.9317 95.3878 61.749 93.7648 61.749 91.306C61.749 88.857 59.9317 87.2048 58.0755 86.2718C56.0101 85.3018 53.7483 84.8229 51.467 84.8724ZM115.696 87.4381C113.218 87.4381 110.953 87.9045 109.087 88.8375C107.231 89.7705 105.414 91.4129 105.414 93.8717C105.414 96.3208 107.231 97.973 109.087 98.8962C110.953 99.8292 113.218 100.305 115.696 100.305C118.164 100.305 120.429 99.8292 122.295 98.8962C124.151 97.973 125.968 96.3208 125.968 93.8717C125.968 91.4129 124.151 89.7705 122.295 88.8375C120.229 87.8669 117.967 87.3879 115.686 87.4381H115.696ZM66.0932 89.547L66.0349 94.6881L71.1759 94.7464L71.2342 89.5956L66.0932 89.547ZM76.3752 89.6733L76.3169 94.8242L81.4385 94.8825L81.5162 89.7316L76.3752 89.6733ZM86.6475 89.8094L86.5795 94.9602L91.7108 95.0088L91.7885 89.858L86.6475 89.8094ZM96.9393 89.9454L96.8615 95.0866L101.993 95.1449L102.071 89.994L96.9393 89.9454ZM51.467 90.0135C53.2455 90.0135 54.8296 90.4022 55.7528 90.8687C56.1415 91.0631 56.2873 91.1991 56.4039 91.306C56.2873 91.4032 56.1415 91.5296 55.7528 91.7239C54.4028 92.3155 52.9406 92.6073 51.467 92.5792C49.9871 92.6067 48.5187 92.315 47.1618 91.7239C46.773 91.5296 46.6272 91.4032 46.5203 91.306C46.6272 91.2089 46.773 91.0631 47.1618 90.8687C48.5187 90.2776 49.9871 89.9859 51.467 90.0135ZM115.696 92.5792C117.474 92.5792 119.049 92.9873 119.972 93.4538C120.361 93.6482 120.506 93.7843 120.623 93.8815C120.506 93.9786 120.37 94.1147 119.982 94.3091C118.631 94.8973 117.169 95.1857 115.696 95.1546C114.217 95.1852 112.748 94.8968 111.391 94.3091C111.002 94.1147 110.856 93.9786 110.749 93.8815C110.856 93.7843 111.002 93.6482 111.391 93.4538C112.314 92.9873 113.917 92.5792 115.696 92.5792ZM103.587 95.728L98.9218 97.8952L101.089 102.56L105.754 100.393L103.587 95.728ZM94.257 100.043L89.5922 102.201L91.7594 106.865L96.4242 104.708L94.257 100.043ZM84.9274 104.348L80.2626 106.506L82.42 111.18L87.0849 109.013L84.9274 104.348ZM75.5977 108.663L70.9329 110.821L73.0904 115.486L77.7552 113.328L75.5977 108.663ZM59.1737 113.153C56.6955 113.153 54.4311 113.63 52.5652 114.563C50.709 115.495 48.8916 117.118 48.8916 119.568C48.8916 122.026 50.709 123.669 52.5652 124.602C54.4311 125.535 56.6955 126.001 59.1737 126.001C61.6421 126.001 63.9065 125.535 65.7725 124.602C67.6287 123.669 69.446 122.026 69.446 119.568C69.446 117.118 67.6287 115.486 65.7725 114.563C63.7081 113.589 61.4558 113.106 59.1737 113.153ZM59.1737 118.304C60.9521 118.304 62.546 118.693 63.4789 119.159C63.8677 119.354 64.0037 119.48 64.1106 119.577C64.0037 119.674 63.8677 119.82 63.4789 120.005C62.1219 120.596 60.6535 120.888 59.1737 120.86C57.6938 120.888 56.2254 120.596 54.8684 120.005C54.4797 119.811 54.3339 119.684 54.227 119.577C54.3339 119.48 54.4797 119.354 54.8684 119.159C56.2254 118.568 57.6938 118.277 59.1737 118.304ZM46.0539 121.997L41.2919 123.892L43.1772 128.684L47.9587 126.788L46.0539 121.997ZM36.5299 125.787L31.7484 127.712L33.6338 132.474L38.4152 130.579L36.5299 125.787ZM26.967 129.607L22.1855 131.512L24.1 136.293L28.8621 134.398L26.967 129.607ZM10.368 131.152C8.08662 131.102 5.82466 131.581 3.75948 132.552C1.91299 133.485 0.085935 135.108 0.085935 137.566C0.085935 140.025 1.90327 141.658 3.7692 142.591C5.62541 143.524 7.88979 144 10.368 144C12.8462 144 15.1008 143.524 16.9668 142.591C18.823 141.658 20.6306 140.025 20.6306 137.566C20.6306 135.108 18.823 133.485 16.9668 132.552C14.9016 131.581 12.6493 131.102 10.368 131.152ZM10.368 136.303C12.1464 136.303 13.7208 136.692 14.6441 137.148C15.0328 137.343 15.1786 137.469 15.2952 137.576C15.1786 137.673 15.0425 137.809 14.6538 138.004C13.3038 138.595 11.8416 138.887 10.368 138.859C8.88812 138.886 7.41972 138.595 6.06274 138.004C5.674 137.809 5.53795 137.673 5.42132 137.576C5.53795 137.479 5.674 137.343 6.06274 137.148C7.41972 136.557 8.88812 136.266 10.368 136.293V136.303Z" fill="#023E73"/>
</svg>
