<svg width="144" height="144" viewBox="0 0 144 144" fill="none" xmlns="http://www.w3.org/2000/svg">
<g clip-path="url(#clip0_1_186)">
<path d="M140.413 32.2245L129.276 43.362L103.819 17.91L114.957 6.76804C115.367 6.34368 115.594 5.77533 115.589 5.18539C115.583 4.59544 115.347 4.03112 114.93 3.61395C114.512 3.19678 113.948 2.96015 113.358 2.95502C112.768 2.9499 112.2 3.17668 111.776 3.58654L110.187 5.17504L86.3235 29.043C85.9017 29.465 85.6647 30.0372 85.6647 30.6338C85.6647 31.2304 85.9017 31.8026 86.3235 32.2245L87.9165 33.8175L84.6315 37.1025L82.53 39.195L74.304 36.4545C73.9072 36.3233 73.4817 36.3047 73.075 36.4008C72.6682 36.4969 72.2961 36.704 72 36.999L70.407 35.406C69.4076 34.438 68.1395 33.7939 66.7683 33.5579C65.3971 33.3219 63.9866 33.5049 62.721 34.083L59.2695 30.6315L60.858 29.043C61.2798 28.6211 61.5168 28.0489 61.5168 27.4523C61.5168 26.8557 61.2798 26.2835 60.858 25.8615L36.999 1.99354L35.406 0.405039C34.9816 -0.00481647 34.4133 -0.231604 33.8233 -0.226477C33.2334 -0.221351 32.6691 0.0152791 32.2519 0.432447C31.8347 0.849616 31.5981 1.41394 31.593 2.00389C31.5879 2.59383 31.8146 3.16218 32.2245 3.58654L43.362 14.7285L17.9055 40.1805L6.768 29.043C6.34365 28.6332 5.77529 28.4064 5.18535 28.4115C4.59541 28.4166 4.03108 28.6533 3.61391 29.0704C3.19674 29.4876 2.96011 30.0519 2.95498 30.6419C2.94986 31.2318 3.17665 31.8002 3.5865 32.2245L5.1795 33.8175L29.043 57.6855C29.252 57.8951 29.5003 58.0613 29.7736 58.1747C30.047 58.2882 30.34 58.3466 30.636 58.3466C30.932 58.3466 31.225 58.2882 31.4984 58.1747C31.7717 58.0613 32.02 57.8951 32.229 57.6855L33.822 56.0925L38.5965 60.867H38.601L39.195 61.47L36.4545 69.696C36.3225 70.0917 36.3031 70.5163 36.3985 70.9223C36.4938 71.3284 36.7002 71.7 36.9945 71.9955L35.4015 73.5885C34.417 74.577 33.7622 75.8458 33.527 77.221C33.2917 78.5962 33.4875 80.0105 34.0875 81.27L30.6315 84.726L29.0385 83.133C28.6089 82.726 28.0396 82.4992 27.4478 82.4992C26.8559 82.4992 26.2866 82.726 25.857 83.133L1.9935 107.001L0.405001 108.594C-0.00485462 109.018 -0.231642 109.587 -0.226516 110.177C-0.221389 110.767 0.0152409 111.331 0.432409 111.748C0.849577 112.165 1.41391 112.402 2.00385 112.407C2.59379 112.412 3.16215 112.185 3.5865 111.776L14.724 100.638L40.1805 126.09L29.043 137.232C28.8341 137.441 28.6684 137.69 28.5555 137.963C28.4426 138.236 28.3845 138.529 28.3848 138.824C28.385 139.12 28.4434 139.413 28.5567 139.686C28.6701 139.959 28.8361 140.207 29.0453 140.416C29.2544 140.625 29.5027 140.79 29.776 140.903C30.0492 141.016 30.342 141.074 30.6376 141.074C30.9332 141.074 31.2259 141.015 31.499 140.902C31.772 140.789 32.0201 140.623 32.229 140.414L33.8175 138.825L57.681 114.957C58.1028 114.535 58.3398 113.963 58.3398 113.366C58.3398 112.77 58.1028 112.197 57.681 111.776L56.088 110.183L59.373 106.898L61.4655 104.805L69.6915 107.546C70.0885 107.675 70.5135 107.692 70.9198 107.596C71.3262 107.5 71.6983 107.294 71.9955 107.001L73.5885 108.594C74.5886 109.561 75.8567 110.204 77.2276 110.44C78.5985 110.676 80.0087 110.494 81.2745 109.917L84.726 113.369L83.1375 114.957C82.7157 115.379 82.4787 115.951 82.4787 116.548C82.4787 117.144 82.7157 117.717 83.1375 118.139L107.001 142.007L108.59 143.595C108.798 143.806 109.046 143.973 109.319 144.087C109.593 144.201 109.886 144.26 110.183 144.26C110.479 144.26 110.772 144.201 111.046 144.087C111.319 143.973 111.567 143.806 111.776 143.595C112.197 143.173 112.434 142.601 112.434 142.004C112.434 141.408 112.197 140.835 111.776 140.414L100.638 129.272L126.094 103.82L137.232 114.957C137.656 115.367 138.225 115.594 138.815 115.589C139.405 115.583 139.969 115.347 140.386 114.93C140.803 114.512 141.04 113.948 141.045 113.358C141.05 112.768 140.823 112.2 140.413 111.776L138.821 110.183L114.957 86.3145C114.527 85.9075 113.958 85.6807 113.366 85.6807C112.774 85.6807 112.205 85.9075 111.776 86.3145L110.183 87.9075L105.408 83.133L104.805 82.53L107.546 74.304C107.677 73.9084 107.697 73.4838 107.602 73.0777C107.506 72.6717 107.3 72.3001 107.006 72.0045L108.598 70.4115C110.668 68.337 111.109 65.241 109.912 62.73L113.369 59.274L114.962 60.867C115.171 61.0766 115.419 61.2428 115.692 61.3562C115.965 61.4697 116.259 61.5281 116.554 61.5281C116.85 61.5281 117.144 61.4697 117.417 61.3562C117.69 61.2428 117.938 61.0766 118.147 60.867L142.011 36.999L143.604 35.406C143.813 35.1965 143.979 34.948 144.091 34.6745C144.204 34.401 144.262 34.108 144.262 33.8121C144.261 33.5163 144.202 33.2234 144.089 32.9502C143.975 32.6771 143.809 32.4289 143.599 32.22C143.39 32.0111 143.141 31.8455 142.868 31.7327C142.594 31.6199 142.301 31.562 142.006 31.5624C141.71 31.5629 141.417 31.6216 141.144 31.7352C140.871 31.8488 140.622 32.015 140.413 32.2245ZM21.087 43.362L46.5435 17.9055L56.088 27.45L54.4995 29.0385L43.362 40.1805L30.636 52.911L21.087 43.362ZM36.999 52.911L46.5435 43.362L56.088 33.813L60.8625 38.583C61.2929 38.9904 61.8629 39.2173 62.4555 39.2173C63.0481 39.2173 63.6181 38.9904 64.0485 38.583C64.4771 38.174 65.0468 37.9458 65.6393 37.9458C66.2317 37.9458 66.8014 38.174 67.23 38.583L68.823 40.176L64.0485 44.9505L42.1515 66.8475L43.9065 61.578C44.0388 61.1813 44.058 60.7556 43.9618 60.3486C43.8656 59.9417 43.6579 59.5695 43.362 59.274L40.284 56.196L36.999 52.911ZM43.362 122.913L17.9055 97.4565L27.4545 87.9075L40.1805 100.638L51.318 111.776L52.9065 113.364L43.362 122.913ZM69.7995 102.839L61.5735 100.098C61.1768 99.9657 60.7511 99.9466 60.3441 100.043C59.9371 100.139 59.565 100.347 59.2695 100.643L57.6765 102.236L56.1915 103.721L52.9065 107.006L43.362 97.4565L33.8175 87.9075L38.592 83.133C39.4695 82.2555 39.4695 80.829 38.592 79.9515C37.7145 79.074 37.7145 77.6475 38.592 76.77L67.2345 48.132C67.6631 47.723 68.2328 47.4948 68.8252 47.4948C69.4177 47.4948 69.9874 47.723 70.416 48.132C70.837 48.5553 71.0733 49.128 71.0733 49.725C71.0733 50.322 70.837 50.8948 70.416 51.318L64.053 57.681C63.6431 58.1054 63.4164 58.6737 63.4215 59.2637C63.4266 59.8536 63.6632 60.418 64.0804 60.8351C64.4976 61.2523 65.0619 61.4889 65.6518 61.4941C66.2418 61.4992 66.8101 61.2724 67.2345 60.8625L73.5975 54.4995C74.0274 54.0912 74.5976 53.8635 75.1905 53.8635C75.7834 53.8635 76.3536 54.0912 76.7835 54.4995C76.9929 54.7082 77.159 54.9561 77.2724 55.229C77.3858 55.502 77.4441 55.7947 77.4441 56.0903C77.4441 56.3859 77.3858 56.6786 77.2724 56.9515C77.159 57.2245 76.9929 57.4724 76.7835 57.681L70.4205 64.044C69.9986 64.4665 69.7618 65.0393 69.7622 65.6364C69.7627 66.2335 70.0003 66.8059 70.4228 67.2278C70.8452 67.6497 71.418 67.8865 72.0151 67.886C72.6122 67.8856 73.1846 67.648 73.6065 67.2255L79.9695 60.8625C80.3939 60.4527 80.9622 60.2259 81.5521 60.231C82.1421 60.2361 82.7064 60.4728 83.1236 60.8899C83.5408 61.3071 83.7774 61.8714 83.7825 62.4614C83.7876 63.0513 83.5609 63.6197 83.151 64.044L76.7835 70.407C76.3616 70.8295 76.1248 71.4023 76.1252 71.9994C76.1257 72.5965 76.3633 73.1689 76.7858 73.5908C77.2082 74.0127 77.781 74.2495 78.3781 74.249C78.9752 74.2486 79.5476 74.011 79.9695 73.5885L86.337 67.2255C86.7656 66.8165 87.3353 66.5882 87.9277 66.5882C88.5202 66.5882 89.0899 66.8165 89.5185 67.2255C89.9403 67.6475 90.1773 68.2197 90.1773 68.8163C90.1773 69.4129 89.9403 69.9851 89.5185 70.407L76.1805 83.745L76.1625 83.763L67.473 92.4525C67.0631 92.8769 66.8364 93.4452 66.8415 94.0352C66.8466 94.6251 67.0832 95.1895 67.5004 95.6066C67.9176 96.0238 68.4819 96.2604 69.0718 96.2656C69.6618 96.2707 70.2301 96.0439 70.6545 95.634L72.0045 94.284L72.018 94.275L79.3575 86.9355C80.2685 86.0282 81.467 85.4664 82.7472 85.3465C84.0274 85.2266 85.3093 85.5562 86.373 86.2785L69.7995 102.839ZM122.913 100.638L97.4565 126.095L87.912 116.55L89.5005 114.962L100.638 103.824L113.364 91.0935L122.913 100.638ZM107.001 91.089L97.4565 100.638L87.912 110.187L83.1375 105.417C82.7066 105.011 82.1367 104.784 81.5445 104.784C80.9523 104.784 80.3824 105.011 79.9515 105.417C79.5229 105.826 78.9532 106.054 78.3607 106.054C77.7683 106.054 77.1986 105.826 76.77 105.417L75.177 103.824L91.1925 87.804C91.4484 87.5379 91.6327 87.2112 91.728 86.8545C92.0851 86.7602 92.412 86.5758 92.6775 86.319L101.848 77.1525L100.089 82.4265C99.9567 82.8232 99.9375 83.249 100.034 83.6559C100.13 84.0629 100.338 84.435 100.634 84.7305L103.712 87.8085L107.001 91.089ZM110.183 56.0925L105.408 60.867C104.531 61.7445 104.531 63.171 105.408 64.0485C106.285 64.926 106.285 66.3525 105.408 67.23L89.5275 83.106C88.284 82.0814 86.8111 81.3728 85.2345 81.0405L92.682 73.593C93.9463 72.3266 94.6564 70.6103 94.6564 68.8208C94.6564 67.0313 93.9463 65.3149 92.682 64.0485C91.4837 62.9001 89.8997 62.2406 88.2405 62.199C88.194 60.5056 87.5074 58.8928 86.319 57.6855C85.1346 56.522 83.5591 55.8417 81.9 55.7775C81.8338 54.1013 81.1399 52.5111 79.956 51.3225C78.7577 50.1741 77.1737 49.5146 75.5145 49.473C75.4693 47.7772 74.7807 46.162 73.5885 44.955C73.0264 44.4241 72.3722 44.0002 71.658 43.704L74.196 41.166L82.422 43.9065C82.8187 44.0389 83.2444 44.058 83.6514 43.9618C84.0584 43.8656 84.4305 43.6579 84.726 43.362L86.319 41.769L87.804 40.284L91.089 36.999L100.634 46.548L110.183 56.0925ZM116.546 56.0925L103.819 43.362L92.682 32.2245L91.0935 30.636L100.638 21.0915L126.094 46.548L116.546 56.0925Z" fill="#023E73"/>
<path d="M118.141 48.1344C119.02 47.2557 119.02 45.831 118.141 44.9524C117.262 44.0737 115.838 44.0737 114.959 44.9524C114.08 45.8311 114.08 47.2558 114.959 48.1344C115.838 49.0131 117.262 49.0131 118.141 48.1344Z" fill="#023E73"/>
<path d="M29.041 99.0474C29.9197 98.1688 29.9197 96.7441 29.041 95.8655C28.1623 94.9868 26.7376 94.9868 25.859 95.8655C24.9803 96.7442 24.9803 98.1688 25.859 99.0475C26.7377 99.9262 28.1624 99.9261 29.041 99.0474Z" fill="#023E73"/>
<path d="M99.0443 118.138C99.923 117.259 99.923 115.834 99.0443 114.956C98.1656 114.077 96.741 114.077 95.8623 114.956C94.9836 115.835 94.9837 117.259 95.8623 118.138C96.741 119.017 98.1657 119.016 99.0443 118.138Z" fill="#023E73"/>
<path d="M48.1358 29.044C49.0145 28.1653 49.0145 26.7407 48.1358 25.8621C47.2571 24.9834 45.8325 24.9834 44.9538 25.8621C44.0751 26.7408 44.0752 28.1654 44.9539 29.0441C45.8326 29.9228 47.2572 29.9227 48.1358 29.044Z" fill="#023E73"/>
</g>
<defs>
<clipPath id="clip0_1_186">
<rect width="144" height="144" fill="white"/>
</clipPath>
</defs>
</svg>
