<svg width="144" height="144" viewBox="0 0 144 144" fill="none" xmlns="http://www.w3.org/2000/svg">
<path d="M39.9825 95.8275H30.6225C29.7903 95.8304 28.9658 95.6691 28.1961 95.3527C27.4264 95.0363 26.7267 94.571 26.1373 93.9836C25.5478 93.3962 25.0801 92.6983 24.7609 91.9297C24.4418 91.1612 24.2775 90.3372 24.2775 89.505V59.5125C24.2775 58.6803 24.4418 57.8563 24.7609 57.0878C25.0801 56.3192 25.5478 55.6212 26.1373 55.0338C26.7267 54.4464 27.4264 53.9812 28.1961 53.6648C28.9658 53.3484 29.7903 53.187 30.6225 53.19H39.9825C41.6593 53.19 43.2675 53.8561 44.4532 55.0418C45.6389 56.2275 46.305 57.8357 46.305 59.5125V89.505C46.305 90.3353 46.1415 91.1574 45.8237 91.9245C45.506 92.6916 45.0403 93.3886 44.4532 93.9757C43.8661 94.5628 43.1691 95.0285 42.402 95.3462C41.6349 95.6639 40.8128 95.8275 39.9825 95.8275ZM30.6225 57.5775C30.137 57.5774 29.6711 57.7687 29.3258 58.1099C28.9804 58.451 28.7834 58.9146 28.7775 59.4V89.505C28.7834 89.9904 28.9804 90.4539 29.3258 90.7951C29.6711 91.1362 30.137 91.3275 30.6225 91.3275H39.9825C40.2218 91.3275 40.4588 91.2803 40.6799 91.1888C40.9011 91.0972 41.102 90.9629 41.2712 90.7937C41.4404 90.6244 41.5747 90.4235 41.6663 90.2024C41.7579 89.9813 41.805 89.7443 41.805 89.505V59.5125C41.805 59.0291 41.613 58.5656 41.2712 58.2238C40.9294 57.882 40.4659 57.69 39.9825 57.69L30.6225 57.5775Z" fill="#023E73"/>
<path d="M22.005 136.373C20.8535 136.357 19.7238 136.056 18.7175 135.496C17.7112 134.936 16.8597 134.135 16.2396 133.165C15.6195 132.194 15.2501 131.085 15.1646 129.937C15.0791 128.788 15.2803 127.637 15.75 126.585L22.5 111.533L24.435 89.2351C24.4865 88.6417 24.7712 88.0929 25.2268 87.7091C25.6823 87.3252 26.2714 87.1377 26.865 87.1876C27.4584 87.2391 28.0072 87.5239 28.391 87.9794C28.7748 88.4349 28.9624 89.024 28.9125 89.6176L26.955 112.298C26.9296 112.552 26.869 112.802 26.775 113.04L19.7775 128.43C19.6066 128.788 19.5333 129.184 19.5649 129.579C19.5965 129.974 19.732 130.354 19.9575 130.68C20.1631 131.037 20.4627 131.331 20.8238 131.529C21.1848 131.728 21.5934 131.823 22.005 131.805C22.4932 131.805 22.9699 131.656 23.3717 131.379C23.7735 131.102 24.0816 130.709 24.255 130.253L31.185 112.545L33.03 93.3076C33.0766 92.8379 33.2698 92.3947 33.5823 92.0408C33.8947 91.6869 34.3105 91.4403 34.7708 91.3358C35.2312 91.2312 35.7127 91.2742 36.1473 91.4585C36.5819 91.6427 36.9476 91.9591 37.1925 92.3626L48.105 110.543C48.308 110.899 48.4164 111.302 48.42 111.713V124.448C48.42 125.044 48.657 125.617 49.079 126.039C49.5009 126.461 50.0732 126.698 50.67 126.698C51.2667 126.698 51.839 126.461 52.261 126.039C52.6829 125.617 52.92 125.044 52.92 124.448V108.923L42.0075 90.4951C41.8223 90.2405 41.6926 89.9499 41.6268 89.642C41.561 89.3341 41.5606 89.0159 41.6255 88.7078C41.6904 88.3997 41.8193 88.1087 42.0037 87.8536C42.1881 87.5984 42.4241 87.3848 42.6963 87.2266C42.9684 87.0684 43.2708 86.969 43.5838 86.935C43.8967 86.9009 44.2134 86.9329 44.5132 87.0289C44.813 87.1249 45.0894 87.2827 45.3244 87.4922C45.5594 87.7017 45.7478 87.9582 45.8775 88.2451L57.1275 107.19C57.3336 107.537 57.4424 107.934 57.4425 108.338V124.493C57.4425 126.283 56.7313 128 55.4655 129.266C54.1996 130.531 52.4827 131.243 50.6925 131.243C48.9023 131.243 47.1854 130.531 45.9195 129.266C44.6536 128 43.9425 126.283 43.9425 124.493V112.5L36.8775 100.71L35.6625 113.468C35.6419 113.677 35.5887 113.882 35.505 114.075L28.485 132.075C27.9585 133.357 27.0596 134.452 25.9045 135.218C24.7493 135.984 23.391 136.386 22.005 136.373ZM67.905 84.6226H67.725L52.47 84.1951C52.162 84.1853 51.8592 84.1124 51.5806 83.9808C51.3019 83.8492 51.0532 83.6618 50.85 83.4301L42.3675 73.7326C41.9742 73.2848 41.7746 72.6993 41.8126 72.1045C41.8505 71.5097 42.1229 70.9543 42.57 70.5601C43.0178 70.1668 43.6033 69.9672 44.1981 70.0052C44.7929 70.0432 45.3483 70.3156 45.7425 70.7626L53.5725 79.7626L67.86 80.1676C68.0981 80.1986 68.3401 80.1695 68.5641 80.083C68.7881 79.9966 68.9869 79.8555 69.1425 79.6726C69.3152 79.507 69.4522 79.3077 69.545 79.0872C69.6379 78.8666 69.6847 78.6294 69.6825 78.3901C69.6834 77.9316 69.5093 77.49 69.1956 77.1555C68.882 76.821 68.4526 76.6188 67.995 76.5901L56.25 75.9376C55.9312 75.9198 55.6199 75.8343 55.3367 75.6869C55.0535 75.5395 54.8049 75.3335 54.6075 75.0826L41.355 58.5001C41.1693 58.2686 41.0313 58.0026 40.9489 57.7175C40.8665 57.4324 40.8413 57.1338 40.8747 56.8389C40.9082 56.5441 40.9997 56.2587 41.1439 55.9993C41.2881 55.74 41.4822 55.5117 41.715 55.3276C41.9479 55.1432 42.215 55.0068 42.501 54.9261C42.7869 54.8455 43.086 54.8223 43.3809 54.8579C43.6759 54.8934 43.9609 54.987 44.2194 55.1333C44.478 55.2796 44.7051 55.4756 44.8875 55.7101L57.42 71.5951L68.2425 72.1801C69.9074 72.2249 71.4863 72.9292 72.6319 74.1381C73.7775 75.347 74.396 76.9615 74.3512 78.6264C74.3065 80.2913 73.6022 81.8702 72.3933 83.0158C71.1844 84.1614 69.5699 84.7799 67.905 84.7351V84.6226ZM20.7675 86.2876H17.325C15.1985 86.2876 13.1588 85.4444 11.6531 83.9429C10.1473 82.4414 9.29844 80.4041 9.29248 78.2776V55.4851C9.29248 53.3548 10.1388 51.3117 11.6451 49.8053C13.1515 48.2989 15.1946 47.4526 17.325 47.4526H20.7675C22.8939 47.4586 24.9313 48.3075 26.4328 49.8132C27.9343 51.319 28.7775 53.3587 28.7775 55.4851V59.6026C28.7775 60.1993 28.5404 60.7716 28.1185 61.1936C27.6965 61.6156 27.1242 61.8526 26.5275 61.8526C25.9307 61.8526 25.3584 61.6156 24.9365 61.1936C24.5145 60.7716 24.2775 60.1993 24.2775 59.6026V55.4851C24.2804 55.0223 24.1918 54.5634 24.0168 54.135C23.8417 53.7065 23.5836 53.3169 23.2574 52.9886C22.9312 52.6603 22.5432 52.3997 22.1159 52.2219C21.6886 52.0441 21.2303 51.9526 20.7675 51.9526H17.325C16.3881 51.9526 15.4896 52.3248 14.8271 52.9873C14.1647 53.6497 13.7925 54.5482 13.7925 55.4851V78.2776C13.7984 79.2106 14.1732 80.1033 14.835 80.7609C15.4969 81.4185 16.392 81.7876 17.325 81.7876H20.7675C21.2284 81.7876 21.6848 81.6968 22.1107 81.5204C22.5366 81.344 22.9235 81.0855 23.2494 80.7596C23.5754 80.4336 23.8339 80.0467 24.0103 79.6208C24.1867 79.195 24.2775 78.7386 24.2775 78.2776C24.2775 77.6809 24.5145 77.1086 24.9365 76.6866C25.3584 76.2647 25.9307 76.0276 26.5275 76.0276C27.1242 76.0276 27.6965 76.2647 28.1185 76.6866C28.5404 77.1086 28.7775 77.6809 28.7775 78.2776C28.7715 80.4002 27.9257 82.4341 26.4248 83.935C24.924 85.4359 22.89 86.2817 20.7675 86.2876ZM34.7175 48.2851C32.4257 48.2851 30.1854 47.6055 28.2798 46.3323C26.3743 45.059 24.8891 43.2493 24.012 41.132C23.135 39.0146 22.9055 36.6848 23.3526 34.437C23.7997 32.1892 24.9033 30.1246 26.5239 28.504C28.1444 26.8835 30.2091 25.7799 32.4569 25.3328C34.7046 24.8857 37.0345 25.1151 39.1518 25.9922C41.2692 26.8692 43.0789 28.3544 44.3521 30.2599C45.6254 32.1655 46.305 34.4058 46.305 36.6976C46.299 39.769 45.0763 42.7129 42.9045 44.8846C40.7327 47.0564 37.7889 48.2792 34.7175 48.2851ZM34.7175 29.6101C33.3157 29.6101 31.9454 30.0258 30.7799 30.8046C29.6143 31.5834 28.7059 32.6903 28.1695 33.9853C27.633 35.2804 27.4927 36.7055 27.7662 38.0803C28.0396 39.4552 28.7147 40.718 29.7059 41.7092C30.6971 42.7004 31.9599 43.3755 33.3348 43.6489C34.7096 43.9224 36.1347 43.782 37.4297 43.2456C38.7248 42.7092 39.8317 41.8008 40.6105 40.6352C41.3893 39.4697 41.805 38.0994 41.805 36.6976C41.799 34.8197 41.0504 33.0204 39.7225 31.6925C38.3947 30.3647 36.5954 29.616 34.7175 29.6101Z" fill="#023E73"/>
<path d="M64.8 122.153C64.2033 122.153 63.631 121.915 63.209 121.493C62.7871 121.072 62.55 120.499 62.55 119.903V82.2825C62.55 81.6858 62.7871 81.1135 63.209 80.6915C63.631 80.2696 64.2033 80.0325 64.8 80.0325C65.3967 80.0325 65.969 80.2696 66.391 80.6915C66.813 81.1135 67.05 81.6858 67.05 82.2825V119.903C67.05 120.499 66.813 121.072 66.391 121.493C65.969 121.915 65.3967 122.153 64.8 122.153ZM64.8 76.5C64.2033 76.5 63.631 76.2629 63.209 75.841C62.7871 75.419 62.55 74.8467 62.55 74.25V69.75C62.55 69.1533 62.7871 68.581 63.209 68.159C63.631 67.7371 64.2033 67.5 64.8 67.5C65.3967 67.5 65.969 67.7371 66.391 68.159C66.813 68.581 67.05 69.1533 67.05 69.75V74.25C67.05 74.8467 66.813 75.419 66.391 75.841C65.969 76.2629 65.3967 76.5 64.8 76.5ZM90.225 112.658C90.0013 112.691 89.7737 112.691 89.55 112.658C83.6568 110.759 77.6434 109.255 71.55 108.158C71.2545 108.109 70.9716 108.002 70.7172 107.844C70.4629 107.686 70.2422 107.479 70.0677 107.236C69.8933 106.993 69.7685 106.717 69.7005 106.426C69.6324 106.134 69.6225 105.832 69.6713 105.536C69.72 105.241 69.8265 104.958 69.9846 104.703C70.1427 104.449 70.3494 104.228 70.5928 104.054C70.8362 103.88 71.1116 103.755 71.4032 103.687C71.6948 103.619 71.997 103.609 72.2925 103.658C78.5832 104.73 84.7928 106.234 90.8775 108.158C91.4742 108.247 92.011 108.57 92.3696 109.055C92.7283 109.54 92.8795 110.148 92.79 110.745C92.7005 111.342 92.3776 111.878 91.8923 112.237C91.4071 112.596 90.7992 112.747 90.2025 112.658H90.225ZM4.50001 127.058C4.03354 127.061 3.5775 126.92 3.19501 126.653C2.95166 126.482 2.74451 126.265 2.58549 126.014C2.42648 125.763 2.31876 125.483 2.26856 125.19C2.21835 124.897 2.22665 124.597 2.29298 124.308C2.35931 124.018 2.48235 123.744 2.65501 123.502C5.90773 119.411 9.83392 115.903 14.265 113.13C14.5128 112.966 14.7906 112.853 15.0823 112.797C15.374 112.742 15.6739 112.744 15.9647 112.805C16.2554 112.865 16.5313 112.983 16.7763 113.151C17.0214 113.319 17.2308 113.533 17.3925 113.783C17.5707 114.033 17.6955 114.318 17.7593 114.619C17.823 114.92 17.8244 115.231 17.7632 115.533C17.7021 115.834 17.5797 116.12 17.4037 116.372C17.2277 116.625 17.0018 116.838 16.74 117C12.7715 119.456 9.25519 122.576 6.34501 126.225C6.12388 126.498 5.84181 126.716 5.52141 126.86C5.20101 127.005 4.85119 127.073 4.50001 127.058Z" fill="#023E73"/>
<path d="M75.3525 134.01C74.9811 134.01 74.6156 133.917 74.2885 133.742C73.9615 133.566 73.683 133.312 73.4781 133.002C73.2731 132.692 73.148 132.337 73.1139 131.967C73.0797 131.597 73.1377 131.224 73.2825 130.882C73.44 130.522 89.2575 93.7575 137.97 91.3275C138.567 91.2976 139.151 91.5061 139.594 91.9069C140.037 92.3078 140.303 92.8682 140.333 93.465C140.362 94.0617 140.154 94.6459 139.753 95.0889C139.352 95.532 138.792 95.7976 138.195 95.8275C92.4075 98.0775 78.03 131.22 77.445 132.615C77.2747 133.029 76.9846 133.384 76.6118 133.632C76.2391 133.881 75.8005 134.012 75.3525 134.01ZM58.5 50.9625C58.1931 50.9644 57.8891 50.9035 57.6066 50.7835C57.3242 50.6636 57.0692 50.4871 56.8575 50.265C56.6466 50.0558 56.4792 49.807 56.365 49.5328C56.2508 49.2586 56.192 48.9645 56.192 48.6675C56.192 48.3705 56.2508 48.0764 56.365 47.8022C56.4792 47.528 56.6466 47.2791 56.8575 47.07L88.5825 16.92C88.8044 16.7113 89.0665 16.5498 89.3527 16.4454C89.6389 16.341 89.9433 16.2957 90.2475 16.3125C90.55 16.3224 90.8474 16.3933 91.1219 16.5209C91.3964 16.6485 91.6424 16.8301 91.845 17.055L110.25 37.89C110.46 38.109 110.624 38.3684 110.732 38.6525C110.839 38.9366 110.888 39.2395 110.875 39.5429C110.863 39.8464 110.789 40.1442 110.658 40.4182C110.527 40.6923 110.342 40.9371 110.114 41.1377C109.886 41.3384 109.619 41.4908 109.331 41.5858C109.042 41.6807 108.738 41.7163 108.435 41.6904C108.132 41.6644 107.838 41.5775 107.57 41.4348C107.302 41.292 107.066 41.0965 106.875 40.86L90 21.8025L60.03 50.3325C59.6185 50.7292 59.0715 50.9544 58.5 50.9625Z" fill="#023E73"/>
<path d="M82.9575 72.0001C82.4106 71.9993 81.8827 71.7993 81.4725 71.4376C81.0254 71.0434 80.753 70.488 80.7151 69.8932C80.6771 69.2984 80.8767 68.7129 81.27 68.2651L125.19 18.2926C125.398 18.0554 125.654 17.8647 125.941 17.7329C126.228 17.6011 126.539 17.5312 126.855 17.5276C127.493 17.5438 128.099 17.8105 128.543 18.2701L141.165 32.1076C141.366 32.327 141.521 32.584 141.622 32.8639C141.723 33.1437 141.768 33.4408 141.753 33.738C141.738 34.0351 141.665 34.3264 141.537 34.5949C141.409 34.8635 141.229 35.104 141.007 35.3026C140.565 35.7014 139.983 35.9088 139.389 35.8793C138.794 35.8497 138.235 35.5857 137.835 35.1451L126.9 23.1526L84.645 71.1676C84.4405 71.4199 84.1838 71.625 83.8925 71.7687C83.6012 71.9124 83.2822 71.9914 82.9575 72.0001Z" fill="#023E73"/>
<path d="M92.655 60.9075C92.3076 60.9101 91.9643 60.8322 91.652 60.68C91.3397 60.5278 91.0669 60.3053 90.855 60.03L81.6975 48.0825C81.3836 47.6852 81.2128 47.1937 81.2128 46.6875C81.2128 46.1812 81.3836 45.6897 81.6975 45.2925L87.5925 37.935L84.7125 31.5C84.5283 30.9989 84.5283 30.4486 84.7125 29.9475L88.065 18.3825C88.1453 18.0968 88.2814 17.8298 88.4654 17.5969C88.6494 17.3641 88.8776 17.1699 89.1369 17.0256C89.3962 16.8813 89.6815 16.7897 89.9764 16.7561C90.2713 16.7226 90.5699 16.7477 90.855 16.83C91.3879 17.0244 91.8277 17.4128 92.0863 17.9177C92.345 18.4225 92.4035 19.0064 92.25 19.5525L89.1225 30.3525L92.25 37.35C92.4018 37.7192 92.4527 38.1222 92.3973 38.5176C92.342 38.913 92.1824 39.2866 91.935 39.6L86.2875 46.665L94.3875 57.24C94.6371 57.5727 94.7896 57.9681 94.828 58.3823C94.8664 58.7965 94.7892 59.2132 94.6051 59.5862C94.4209 59.9592 94.137 60.2738 93.7848 60.4951C93.4326 60.7164 93.0259 60.8358 92.61 60.84L92.655 60.9075ZM132.502 64.62C132.199 64.6188 131.9 64.5564 131.621 64.4366C131.343 64.3167 131.092 64.1418 130.882 63.9225L125.797 58.5C125.549 58.2361 125.369 57.9162 125.271 57.5676C125.173 57.219 125.161 56.8519 125.235 56.4975L128.115 43.11L122.625 36.765C122.408 36.5145 122.249 36.2192 122.16 35.9003C122.071 35.5814 122.053 35.2466 122.107 34.92L124.582 19.8C124.63 19.5045 124.735 19.2212 124.892 18.9663C125.048 18.7114 125.254 18.4899 125.496 18.3144C125.738 18.1389 126.013 18.0129 126.304 17.9435C126.595 17.8741 126.897 17.8627 127.192 17.91C127.488 17.9572 127.771 18.0622 128.026 18.219C128.281 18.3757 128.503 18.5812 128.678 18.8235C128.854 19.0659 128.98 19.3404 129.049 19.6315C129.118 19.9226 129.13 20.2245 129.082 20.52L126.832 34.6275L132.367 41.04C132.593 41.3026 132.756 41.6139 132.841 41.9495C132.927 42.2852 132.935 42.6361 132.862 42.975L129.892 56.25L134.145 60.75C134.442 61.0705 134.64 61.4707 134.713 61.9017C134.787 62.3326 134.733 62.7757 134.559 63.1767C134.385 63.5776 134.097 63.9192 133.732 64.1595C133.367 64.3998 132.94 64.5286 132.502 64.53V64.62ZM45.7875 19.5075H45.5625C45.0056 19.4515 44.4895 19.19 44.115 18.7739C43.7406 18.3579 43.5347 17.8172 43.5375 17.2575C43.5375 13.23 37.8225 12.105 37.755 12.0825C37.4595 12.0278 37.1777 11.9155 36.9256 11.7519C36.6736 11.5883 36.4562 11.3767 36.2859 11.1291C36.1156 10.8815 35.9958 10.6028 35.9332 10.3089C35.8706 10.015 35.8666 9.71169 35.9212 9.41621C35.9759 9.12074 36.0882 8.83892 36.2518 8.58686C36.4154 8.3348 36.627 8.11742 36.8746 7.94714C37.1222 7.77686 37.4009 7.65701 37.6948 7.59444C37.9887 7.53187 38.292 7.5278 38.5875 7.58246C41.4136 8.11879 43.9972 9.53661 45.9675 11.6325C46.8518 10.46 47.9749 9.48864 49.2627 8.7827C50.5504 8.07677 51.9734 7.65233 53.4375 7.53746C53.733 7.51382 54.0302 7.54862 54.3122 7.63985C54.5943 7.73109 54.8555 7.87698 55.0812 8.06919C55.3068 8.26141 55.4924 8.49619 55.6273 8.76013C55.7622 9.02406 55.8438 9.31199 55.8675 9.60746C55.8911 9.90294 55.8563 10.2002 55.7651 10.4822C55.6739 10.7642 55.528 11.0255 55.3358 11.2512C55.1435 11.4768 54.9088 11.6624 54.6448 11.7973C54.3809 11.9322 54.093 12.0138 53.7975 12.0375C52.373 12.2565 51.051 12.9101 50.012 13.9089C48.973 14.9076 48.2677 16.2028 47.9925 17.6175C47.9074 18.1422 47.6394 18.6199 47.2357 18.9658C46.8321 19.3118 46.3191 19.5037 45.7875 19.5075ZM60.5475 28.5975H60.3225C59.7656 28.5415 59.2495 28.28 58.875 27.8639C58.5006 27.4479 58.2947 26.9072 58.2975 26.3475C58.2837 25.5741 58.0131 24.8272 57.5284 24.2244C57.0437 23.6216 56.3724 23.197 55.62 23.0175C55.0411 22.8713 54.5441 22.5011 54.2382 21.9884C53.9323 21.4758 53.8425 20.8625 53.9887 20.2837C54.1349 19.7049 54.5051 19.2078 55.0178 18.9019C55.5304 18.596 56.1436 18.5063 56.7225 18.6525C58.2702 19.1083 59.6632 19.9799 60.75 21.1725C62.1502 19.6635 64.0736 18.746 66.1275 18.6075C66.4231 18.5829 66.7208 18.617 67.0032 18.7078C67.2856 18.7987 67.5473 18.9445 67.7731 19.1369C67.999 19.3293 68.1846 19.5645 68.3192 19.8289C68.4538 20.0932 68.5348 20.3816 68.5575 20.6775C68.6009 21.2709 68.4075 21.8574 68.0196 22.3086C67.6316 22.7598 67.0807 23.0389 66.4875 23.085C63.3825 23.3325 62.685 26.7525 62.6625 26.7975C62.5622 27.2909 62.2993 27.7364 61.9158 28.0627C61.5324 28.3891 61.0506 28.5773 60.5475 28.5975ZM111.465 118.44C110.966 118.455 110.476 118.304 110.073 118.011C109.669 117.717 109.375 117.298 109.236 116.818C109.096 116.339 109.121 115.827 109.304 115.363C109.488 114.899 109.821 114.509 110.25 114.255C118.374 109.08 128.06 106.93 137.61 108.18C137.905 108.218 138.19 108.315 138.449 108.463C138.707 108.612 138.934 108.81 139.115 109.046C139.297 109.282 139.431 109.551 139.508 109.839C139.586 110.127 139.606 110.427 139.567 110.722C139.529 111.018 139.433 111.303 139.284 111.561C139.136 111.82 138.938 112.046 138.702 112.228C138.466 112.41 138.196 112.543 137.908 112.621C137.621 112.698 137.32 112.718 137.025 112.68C128.483 111.572 119.824 113.508 112.567 118.147C112.231 118.338 111.852 118.439 111.465 118.44ZM99 129.172C98.5055 129.177 98.0231 129.019 97.6275 128.722C97.3913 128.542 97.1933 128.316 97.045 128.058C96.8966 127.8 96.8008 127.516 96.7632 127.221C96.7255 126.926 96.7467 126.626 96.8256 126.339C96.9044 126.053 97.0393 125.784 97.2225 125.55C98.3018 124.223 99.4589 122.96 100.687 121.77C100.899 121.563 101.149 121.4 101.423 121.29C101.697 121.179 101.991 121.124 102.286 121.127C102.582 121.131 102.874 121.192 103.146 121.308C103.418 121.424 103.664 121.592 103.871 121.804C104.078 122.015 104.241 122.265 104.352 122.539C104.462 122.814 104.517 123.107 104.514 123.403C104.511 123.698 104.449 123.99 104.333 124.262C104.217 124.534 104.049 124.781 103.837 124.987C102.737 126.017 101.693 127.107 100.71 128.25C100.512 128.522 100.256 128.746 99.9597 128.905C99.6638 129.065 99.3358 129.156 99 129.172Z" fill="#023E73"/>
</svg>
