<svg width="56" height="56" viewBox="0 0 56 56" fill="none" xmlns="http://www.w3.org/2000/svg">
<path d="M45.5151 39H41.3469C39.8039 39 39.0305 38.1559 37.7446 36.7584C37.2379 36.2087 36.6168 35.5323 35.792 34.7236C33.5174 32.5789 32.5535 32.3627 32.1991 32.3627C32.1858 32.454 32.1744 32.5994 32.1744 32.8267V36.4826C32.1744 38.5714 30.6047 39 28.2444 39C23.299 39 18.2546 36.0615 14.7494 31.1404C9.70116 24.218 8 18.5907 8 17.087C8 15.7621 8.86868 15.0019 10.3812 15.0019H14.5494C16.3782 15.0019 16.9363 16.1441 17.3154 17.2137C19.1918 22.5634 21.9579 26.5491 23.1085 27.3447C23.118 27.2236 23.1257 27.0634 23.1257 26.8472V20.8435C23.0475 19.4851 22.5865 18.9261 22.1789 18.4342C21.8455 18.0317 21.4683 17.5752 21.4683 16.8708C21.4683 15.9727 22.2379 15.0019 23.4819 15.0019H30.0313C31.0104 15.0019 32.1744 15.423 32.1744 17.4317V25.5093C32.1744 25.5466 32.1763 25.5801 32.1782 25.6118C32.3935 25.4665 32.7002 25.1925 33.1402 24.764C35.9577 21.6801 38.0341 16.7814 38.0551 16.7311C38.5523 15.5944 39.4819 15 40.7507 15H44.9188C45.8199 15 46.4771 15.2646 46.8714 15.7826C47.1343 16.1273 47.3858 16.7404 47.0924 17.6981C46.5552 20.1186 41.8784 26.6106 41.345 27.3429C41.305 27.4081 41.1431 27.6652 41.1221 27.7528C41.1279 27.7528 41.1621 27.8441 41.3203 28.0453C41.5127 28.3043 41.987 28.759 42.4461 29.2006C43.0138 29.7447 43.6558 30.3615 44.1663 30.9522C46.4142 33.4248 47.4867 34.9062 47.862 36.0466C48.1744 37.1012 47.8982 37.7646 47.6086 38.1391C47.3134 38.5342 46.7076 39 45.5151 39ZM32.3134 30.4975C33.1745 30.4975 34.4204 30.8422 37.1255 33.3932C37.9941 34.2429 38.638 34.9416 39.1619 35.5118C40.4078 36.8702 40.7107 37.1366 41.345 37.1366H45.5131C45.9075 37.1366 46.0675 37.0491 46.0885 37.0248C46.0885 37.0248 46.1361 36.9112 46.0427 36.5963C45.6922 35.5304 44.0882 33.6727 42.7299 32.1764C42.2404 31.6099 41.6441 31.0398 41.1145 30.5348C40.5259 29.9721 40.063 29.5267 39.7982 29.1652C38.8495 27.9708 39.221 27.1677 39.7639 26.3143C41.1755 24.3652 44.8483 19.0304 45.2503 17.236C45.3055 17.046 45.3188 16.9416 45.3188 16.8913C45.2845 16.895 45.1569 16.8671 44.9188 16.8671H40.7507C40.1811 16.8671 39.9753 17.0832 39.8134 17.454C39.7296 17.6534 37.5998 22.6826 34.5251 26.046C33.546 27.0056 32.8545 27.6093 31.8715 27.6093C31.1 27.6093 30.2694 26.9516 30.2694 25.5112V17.4335C30.2694 17.0758 30.2256 16.9248 30.2046 16.8727C30.1837 16.8801 30.1322 16.8689 30.0313 16.8671H23.4819C23.3885 16.9379 23.5524 17.1354 23.661 17.2658C24.162 17.8714 24.9163 18.7863 25.0306 20.795L25.0326 26.8509C25.0326 27.5944 25.0326 29.3385 23.3066 29.3385C20.8625 29.3385 17.2126 22.6509 15.5171 17.8248C15.178 16.8689 15.0199 16.8689 14.5513 16.8689H10.3831C10.0098 16.8689 9.89928 16.9398 9.89928 16.9398C9.9069 17.7429 11.088 22.9099 16.3077 30.0689C19.4624 34.4981 23.9219 37.1385 28.2463 37.1385C30.2713 37.1385 30.2713 36.8646 30.2713 36.4845V32.8286C30.2713 31.6752 30.5132 30.4975 32.3134 30.4975Z" fill="#F15C05"/>
<path d="M43.6953 1.03906H12.3047C5.88438 1.03906 0.65625 6.26719 0.65625 12.6875V43.3125C0.65625 49.7328 5.88438 54.9609 12.3047 54.9609H43.6953C50.1156 54.9609 55.3438 49.7328 55.3438 43.3125V12.6875C55.3438 6.26719 50.1156 1.03906 43.6953 1.03906ZM53.1562 43.3125C53.1562 48.5297 48.9125 52.7734 43.6953 52.7734H12.3047C7.0875 52.7734 2.84375 48.5297 2.84375 43.3125V12.6875C2.84375 7.47031 7.0875 3.22656 12.3047 3.22656H43.6953C48.9125 3.22656 53.1562 7.47031 53.1562 12.6875V43.3125Z" fill="#F15C05"/>
</svg>
